<?xml version="1.0" encoding="UTF-8" standalone="no"?>
<svg
   xmlns:dc="http://purl.org/dc/elements/1.1/"
   xmlns:cc="http://creativecommons.org/ns#"
   xmlns:rdf="http://www.w3.org/1999/02/22-rdf-syntax-ns#"
   xmlns:svg="http://www.w3.org/2000/svg"
   xmlns="http://www.w3.org/2000/svg"
   id="svg25"
   height="9.5334663mm"
   width="12.446mm"
   version="1.0">
  <metadata
   id="metadata29">
  <rdf:RDF>
    <cc:Work
     rdf:about="">
    <dc:format>image/svg+xml</dc:format>
    <dc:type
       rdf:resource="http://purl.org/dc/dcmitype/StillImage" />
    </cc:Work>
  </rdf:RDF>
  </metadata>
  <defs
   id="defs3">
  <pattern
     y="0"
     x="0"
     height="6"
     width="6"
     patternUnits="userSpaceOnUse"
     id="EMFhbasepattern" />
  </defs>
  <path
   id="path5"
   d="  M 1.6666667,35.666667   C 0.66666667,35.666667 0,34.666667 0,34   C 0,2.3333333 0,2.3333333 0,2.3333333   C 0,1.3333333 0.66666667,0.66666667 1.6666667,0.66666667   C 45,0.66666667 45,0.66666667 45,0.66666667   C 46,0.66666667 46.666667,1.3333333 46.666667,2.3333333   C 46.666667,34 46.666667,34 46.666667,34   C 46.666667,34.666667 46,35.666667 45,35.666667   z "
   style="fill:#ffffff;fill-rule:nonzero;fill-opacity:1;stroke:none;" />
  <path
   id="path7"
   d="  M 45,1   C 45.666667,1 46.333333,1.6666667 46.333333,2.3333333   C 46.333333,34 46.333333,34 46.333333,34   C 46.333333,34.666667 45.666667,35.333333 45,35.333333   C 1.6666667,35.333333 1.6666667,35.333333 1.6666667,35.333333   C 1,35.333333 0.33333333,34.666667 0.33333333,34   C 0.33333333,2.3333333 0.33333333,2.3333333 0.33333333,2.3333333   C 0.33333333,1.6666667 1,1 1.6666667,1   C 45,1 45,1 45,1   M 45,0.33333333   C 1.6666667,0.33333333 1.6666667,0.33333333 1.6666667,0.33333333   C 0.66666667,0.33333333 -0.33333333,1.3333333 -0.33333333,2.3333333   C -0.33333333,34 -0.33333333,34 -0.33333333,34   C -0.33333333,35 0.66666667,36 1.6666667,36   C 45,36 45,36 45,36   C 46,36 47,35 47,34   C 47,2.3333333 47,2.3333333 47,2.3333333   C 47,1.3333333 46,0.33333333 45,0.33333333   z "
   style="fill:#409eff;fill-rule:nonzero;fill-opacity:1;stroke:none;" />
  <path
   id="path9"
   d="  M 35.333333,18.666667   L 25.666667,19   L 25.666667,17.333333   L 35.333333,17.333333   L 35.333333,15   L 41,18   L 35.333333,21.333333   L 35.333333,18.666667  z   "
   style="fill:#409eff;fill-rule:nonzero;fill-opacity:1;stroke:none;" />
  <path
   id="path11"
   d="  M 35.333333,18.666667   L 25.666667,19   L 25.666667,17.333333   L 35.333333,17.333333   L 35.333333,15   L 41,18   L 35.333333,21.333333   L 35.333333,18.666667  "
   style="fill:none;stroke:none;" />
  <path
   id="path13"
   d="  M 15.666667,18.666667   L 5.6666667,19   L 5.6666667,17.333333   L 15.666667,17.333333   L 15.666667,15   L 21.333333,18   L 15.666667,21.333333   L 15.666667,18.666667  z   "
   style="fill:#409eff;fill-rule:nonzero;fill-opacity:1;stroke:none;" />
  <path
   id="path15"
   d="  M 15.666667,18.666667   L 5.6666667,19   L 5.6666667,17.333333   L 15.666667,17.333333   L 15.666667,15   L 21.333333,18   L 15.666667,21.333333   L 15.666667,18.666667  "
   style="fill:none;stroke:none;" />
  <path
   id="path17"
   d="  M 33.666667,8.3333333   L 25.333333,14   L 24.666667,12.666667   L 32.666667,7.3333333   L 31.666667,5   L 38,4.6666667   L 35,10.666667   L 33.666667,8.3333333  z   "
   style="fill:#409eff;fill-rule:nonzero;fill-opacity:1;stroke:none;" />
  <path
   id="path19"
   d="  M 33.666667,8.3333333   L 25.333333,14   L 24.666667,12.666667   L 32.666667,7.3333333   L 31.666667,5   L 38,4.6666667   L 35,10.666667   L 33.666667,8.3333333  "
   style="fill:none;stroke:none;" />
  <path
   id="path21"
   d="  M 33.666667,27.666667   L 25.333333,22.333333   L 24.666667,23.666667   L 32.666667,29   L 31.666667,31   L 38,31.333333   L 35,25.666667   L 33.666667,27.666667  z   "
   style="fill:#409eff;fill-rule:nonzero;fill-opacity:1;stroke:none;" />
  <path
   id="path23"
   d="  M 33.666667,27.666667   L 25.333333,22.333333   L 24.666667,23.666667   L 32.666667,29   L 31.666667,31   L 38,31.333333   L 35,25.666667   L 33.666667,27.666667  "
   style="fill:none;stroke:none;" />
</svg>
