<?xml version="1.0" encoding="UTF-8" standalone="no"?>
<svg
   xmlns:dc="http://purl.org/dc/elements/1.1/"
   xmlns:cc="http://creativecommons.org/ns#"
   xmlns:rdf="http://www.w3.org/1999/02/22-rdf-syntax-ns#"
   xmlns:svg="http://www.w3.org/2000/svg"
   xmlns="http://www.w3.org/2000/svg"
   id="svg11"
   height="9.5334663mm"
   width="12.446mm"
   version="1.0">
  <metadata
   id="metadata15">
  <rdf:RDF>
    <cc:Work
     rdf:about="">
    <dc:format>image/svg+xml</dc:format>
    <dc:type
       rdf:resource="http://purl.org/dc/dcmitype/StillImage" />
    </cc:Work>
  </rdf:RDF>
  </metadata>
  <defs
   id="defs3">
  <pattern
     y="0"
     x="0"
     height="6"
     width="6"
     patternUnits="userSpaceOnUse"
     id="EMFhbasepattern" />
  </defs>
  <path
   id="path5"
   d="  M 1.6666667,35.666667   C 0.66666667,35.666667 0,35 0,34   C 0,2.3333333 0,2.3333333 0,2.3333333   C 0,1.6666667 0.66666667,0.66666667 1.6666667,0.66666667   C 44.666667,0.66666667 44.666667,0.66666667 44.666667,0.66666667   C 45.666667,0.66666667 46.333333,1.6666667 46.333333,2.3333333   C 46.333333,34 46.333333,34 46.333333,34   C 46.333333,35 45.666667,35.666667 44.666667,35.666667   z "
   style="fill:#ffffff;fill-rule:nonzero;fill-opacity:1;stroke:none;" />
  <path
   id="path7"
   d="  M 44.666667,1   C 45.666667,1 46,1.6666667 46,2.3333333   C 46,34 46,34 46,34   C 46,34.666667 45.666667,35.333333 44.666667,35.333333   C 1.6666667,35.333333 1.6666667,35.333333 1.6666667,35.333333   C 0.66666667,35.333333 0.33333333,34.666667 0.33333333,34   C 0.33333333,2.3333333 0.33333333,2.3333333 0.33333333,2.3333333   C 0.33333333,1.6666667 0.66666667,1 1.6666667,1   C 44.666667,1 44.666667,1 44.666667,1   M 44.666667,0.33333333   C 1.6666667,0.33333333 1.6666667,0.33333333 1.6666667,0.33333333   C 0.33333333,0.33333333 -0.33333333,1.3333333 -0.33333333,2.3333333   C -0.33333333,34 -0.33333333,34 -0.33333333,34   C -0.33333333,35 0.33333333,36 1.6666667,36   C 44.666667,36 44.666667,36 44.666667,36   C 46,36 46.666667,35 46.666667,34   C 46.666667,2.3333333 46.666667,2.3333333 46.666667,2.3333333   C 46.666667,1.3333333 46,0.33333333 44.666667,0.33333333   z "
   style="fill:#409eff;fill-rule:nonzero;fill-opacity:1;stroke:none;" />
  <path
   id="path9"
   d="  M 45,4   L 45,2.6666667   L 1.3333333,2.6666667   L 1.3333333,4   L 14.333333,4   L 14.333333,8.6666667   L 1.3333333,8.6666667   L 1.3333333,8.6666667   L 1.3333333,10   L 1.3333333,10   L 5.6666667,10   L 5.6666667,14.666667   L 1.3333333,14.666667   L 1.3333333,16   L 14.333333,16   L 14.333333,20.666667   L 1.3333333,20.666667   L 1.3333333,20.666667   L 1.3333333,22   L 1.3333333,22   L 5.6666667,22   L 5.6666667,26.666667   L 1.3333333,26.666667   L 1.3333333,28   L 14.333333,28   L 14.333333,32.333333   L 1.3333333,32.333333   L 1.3333333,33.666667   L 45,33.666667   L 45,32.333333   L 32.666667,32.333333   L 32.666667,28   L 45,28   L 45,26.666667   L 41,26.666667   L 41,22   L 45,22   L 45,22   L 45,20.666667   L 45,20.666667   L 32.666667,20.666667   L 32.666667,16   L 45,16   L 45,14.666667   L 41,14.666667   L 41,10   L 45,10   L 45,10   L 45,8.6666667   L 45,8.6666667   L 32.666667,8.6666667   L 32.666667,4   L 45,4  z  M 7,26.666667   L 7,22   L 22.666667,22   L 22.666667,26.666667   L 7,26.666667  z  M 31.333333,32.333333   L 15.666667,32.333333   L 15.666667,28   L 31.333333,28   L 31.333333,32.333333  z  M 39.666667,26.666667   L 24,26.666667   L 24,22   L 39.666667,22   L 39.666667,26.666667  z  M 7,14.666667   L 7,10   L 22.666667,10   L 22.666667,14.666667   L 7,14.666667  z  M 31.333333,16   L 31.333333,20.666667   L 15.666667,20.666667   L 15.666667,16   L 31.333333,16  z  M 39.666667,14.666667   L 24,14.666667   L 24,10   L 39.666667,10   L 39.666667,14.666667  z  M 15.666667,8.6666667   L 15.666667,4   L 31.333333,4   L 31.333333,8.6666667   L 15.666667,8.6666667  z   "
   style="fill:#409eff;fill-rule:nonzero;fill-opacity:1;stroke:none;" />
</svg>
