<?xml version="1.0" encoding="UTF-8" standalone="no"?>
<svg
   xmlns:dc="http://purl.org/dc/elements/1.1/"
   xmlns:cc="http://creativecommons.org/ns#"
   xmlns:rdf="http://www.w3.org/1999/02/22-rdf-syntax-ns#"
   xmlns:svg="http://www.w3.org/2000/svg"
   xmlns="http://www.w3.org/2000/svg"
   id="svg17"
   height="9.5334663mm"
   width="9.5334663mm"
   version="1.0">
  <metadata
   id="metadata21">
  <rdf:RDF>
    <cc:Work
     rdf:about="">
    <dc:format>image/svg+xml</dc:format>
    <dc:type
       rdf:resource="http://purl.org/dc/dcmitype/StillImage" />
    </cc:Work>
  </rdf:RDF>
  </metadata>
  <defs
   id="defs3">
  <pattern
     y="0"
     x="0"
     height="6"
     width="6"
     patternUnits="userSpaceOnUse"
     id="EMFhbasepattern" />
  </defs>
  <path
   id="path5"
   d="  M 2.3333333,35.333333   C 1.6666667,35.333333 0.66666667,34.666667 0.66666667,33.666667   C 0.66666667,2.3333333 0.66666667,2.3333333 0.66666667,2.3333333   C 0.66666667,1.3333333 1.6666667,0.66666667 2.3333333,0.66666667   C 34,0.66666667 34,0.66666667 34,0.66666667   C 35,0.66666667 35.666667,1.3333333 35.666667,2.3333333   C 35.666667,33.666667 35.666667,33.666667 35.666667,33.666667   C 35.666667,34.666667 35,35.333333 34,35.333333   z "
   style="fill:#ffffff;fill-rule:nonzero;fill-opacity:1;stroke:none;" />
  <path
   id="path7"
   d="  M 34,1   C 34.666667,1 35.333333,1.3333333 35.333333,2.3333333   C 35.333333,33.666667 35.333333,33.666667 35.333333,33.666667   C 35.333333,34.333333 34.666667,35 34,35   C 2.3333333,35 2.3333333,35 2.3333333,35   C 1.6666667,35 1,34.333333 1,33.666667   C 1,2.3333333 1,2.3333333 1,2.3333333   C 1,1.3333333 1.6666667,1 2.3333333,1   C 34,1 34,1 34,1   M 34,0.33333333   C 2.3333333,0.33333333 2.3333333,0.33333333 2.3333333,0.33333333   C 1.3333333,0.33333333 0.33333333,1 0.33333333,2.3333333   C 0.33333333,33.666667 0.33333333,33.666667 0.33333333,33.666667   C 0.33333333,35 1.3333333,35.666667 2.3333333,35.666667   C 34,35.666667 34,35.666667 34,35.666667   C 35,35.666667 36,35 36,33.666667   C 36,2.3333333 36,2.3333333 36,2.3333333   C 36,1 35,0.33333333 34,0.33333333   z "
   style="fill:#409eff;fill-rule:nonzero;fill-opacity:1;stroke:none;" />
  <path
   id="path9"
   d="  M 33.333333,8   L 27,12.333333   L 27,9.3333333   L 20,9.3333333   L 20,6.6666667   L 27,6.6666667   L 27,3.6666667   L 33.333333,8  z   "
   style="fill:#409eff;fill-rule:nonzero;fill-opacity:1;stroke:none;" />
  <path
   id="path11"
   d="  M 30,21.333333   L 23.333333,25.666667   L 23.333333,22.666667   L 16.333333,22.666667   L 16.333333,20   L 23.333333,20   L 23.333333,17   L 30,21.333333  z   "
   style="fill:#409eff;fill-rule:nonzero;fill-opacity:1;stroke:none;" />
  <path
   id="path13"
   d="  M 3,28   L 9.3333333,23.666667   L 9.3333333,26.666667   L 16.333333,26.666667   L 16.333333,29.333333   L 9.3333333,29.333333   L 9.3333333,32.333333   L 3,28  z   "
   style="fill:#409eff;fill-rule:nonzero;fill-opacity:1;stroke:none;" />
  <path
   id="path15"
   d="  M 6.6666667,14.666667   L 13,10.333333   L 13,13.333333   L 20,13.333333   L 20,16   L 13,16   L 13,19   L 6.6666667,14.666667  z   "
   style="fill:#409eff;fill-rule:nonzero;fill-opacity:1;stroke:none;" />
</svg>
