<?xml version="1.0" encoding="UTF-8" standalone="no"?>
<svg
   xmlns:dc="http://purl.org/dc/elements/1.1/"
   xmlns:cc="http://creativecommons.org/ns#"
   xmlns:rdf="http://www.w3.org/1999/02/22-rdf-syntax-ns#"
   xmlns:svg="http://www.w3.org/2000/svg"
   xmlns="http://www.w3.org/2000/svg"
   id="svg11"
   height="9.2709999mm"
   width="9.2709999mm"
   version="1.0">
  <metadata
   id="metadata15">
  <rdf:RDF>
    <cc:Work
     rdf:about="">
    <dc:format>image/svg+xml</dc:format>
    <dc:type
       rdf:resource="http://purl.org/dc/dcmitype/StillImage" />
    </cc:Work>
  </rdf:RDF>
  </metadata>
  <defs
   id="defs3">
  <pattern
     y="0"
     x="0"
     height="6"
     width="6"
     patternUnits="userSpaceOnUse"
     id="EMFhbasepattern" />
  </defs>
  <path
   id="path5"
   d="  M 1.6666667,35   C 0.66666667,35 0,34.333333 0,33.333333   C 0,1.6666667 0,1.6666667 0,1.6666667   C 0,1 0.66666667,0 1.6666667,0   C 33,0 33,0 33,0   C 34,0 34.666667,1 34.666667,1.6666667   C 34.666667,33.333333 34.666667,33.333333 34.666667,33.333333   C 34.666667,34.333333 34,35 33,35   z "
   style="fill:#fafafa;fill-rule:nonzero;fill-opacity:1;stroke:none;" />
  <path
   id="path7"
   d="  M 33,0.33333333   C 33.666667,0.33333333 34.333333,1 34.333333,1.6666667   C 34.333333,33.333333 34.333333,33.333333 34.333333,33.333333   C 34.333333,34 33.666667,34.666667 33,34.666667   C 1.6666667,34.666667 1.6666667,34.666667 1.6666667,34.666667   C 0.66666667,34.666667 0.33333333,34 0.33333333,33.333333   C 0.33333333,1.6666667 0.33333333,1.6666667 0.33333333,1.6666667   C 0.33333333,1 0.66666667,0.33333333 1.6666667,0.33333333   C 33,0.33333333 33,0.33333333 33,0.33333333   M 33,-0.33333333   C 1.6666667,-0.33333333 1.6666667,-0.33333333 1.6666667,-0.33333333   C 0.33333333,-0.33333333 -0.33333333,0.66666667 -0.33333333,1.6666667   C -0.33333333,33.333333 -0.33333333,33.333333 -0.33333333,33.333333   C -0.33333333,34.333333 0.33333333,35.333333 1.6666667,35.333333   C 33,35.333333 33,35.333333 33,35.333333   C 34,35.333333 35,34.333333 35,33.333333   C 35,1.6666667 35,1.6666667 35,1.6666667   C 35,0.66666667 34,-0.33333333 33,-0.33333333   z "
   style="fill:#2a71b9;fill-rule:nonzero;fill-opacity:1;stroke:none;" />
  <path
   id="path9"
   d="  M 25.666667,24.666667   C 22,21 22,21 22,21   C 22.666667,20.333333 23,19.333333 23,18.666667   C 27.666667,18.666667 27.666667,18.666667 27.666667,18.666667   C 27.666667,20.666667 27.666667,20.666667 27.666667,20.666667   C 32.333333,17.666667 32.333333,17.666667 32.333333,17.666667   C 27.666667,14.333333 27.666667,14.333333 27.666667,14.333333   C 27.666667,16.666667 27.666667,16.666667 27.666667,16.666667   C 23,16.666667 23,16.666667 23,16.666667   C 23,15.666667 22.666667,15 22,14   C 25.666667,10.666667 25.666667,10.666667 25.666667,10.666667   C 27,12 27,12 27,12   C 28.333333,6.6666667 28.333333,6.6666667 28.333333,6.6666667   C 22.666667,7.6666667 22.666667,7.6666667 22.666667,7.6666667   C 24.333333,9 24.333333,9 24.333333,9   C 20.666667,12.666667 20.666667,12.666667 20.666667,12.666667   C 20,12.333333 19,12 18.333333,11.666667   C 18.333333,7.3333333 18.333333,7.3333333 18.333333,7.3333333   C 20.333333,7.3333333 20.333333,7.3333333 20.333333,7.3333333   C 17.333333,2.6666667 17.333333,2.6666667 17.333333,2.6666667   C 14.333333,7.3333333 14.333333,7.3333333 14.333333,7.3333333   C 16.333333,7.3333333 16.333333,7.3333333 16.333333,7.3333333   C 16.333333,11.666667 16.333333,11.666667 16.333333,11.666667   C 15.333333,12 14.666667,12.333333 14,12.666667   C 10.333333,9 10.333333,9 10.333333,9   C 11.666667,7.6666667 11.666667,7.6666667 11.666667,7.6666667   C 6.3333333,6.6666667 6.3333333,6.6666667 6.3333333,6.6666667   C 7.3333333,12 7.3333333,12 7.3333333,12   C 9,10.666667 9,10.666667 9,10.666667   C 12.666667,14 12.666667,14 12.666667,14   C 12,15 11.666667,15.666667 11.666667,16.666667   C 7,16.666667 7,16.666667 7,16.666667   C 7,14.333333 7,14.333333 7,14.333333   C 2.3333333,17.666667 2.3333333,17.666667 2.3333333,17.666667   C 7,20.666667 7,20.666667 7,20.666667   C 7,18.666667 7,18.666667 7,18.666667   C 11.333333,18.666667 11.333333,18.666667 11.333333,18.666667   C 11.666667,19.333333 12,20.333333 12.333333,21   C 9,24.666667 9,24.666667 9,24.666667   C 7.3333333,23 7.3333333,23 7.3333333,23   C 6.3333333,28.333333 6.3333333,28.333333 6.3333333,28.333333   C 11.666667,27.333333 11.666667,27.333333 11.666667,27.333333   C 10.333333,26 10.333333,26 10.333333,26   C 14,22.333333 14,22.333333 14,22.333333   C 14.666667,23 15.333333,23.333333 16.333333,23.333333   C 16.333333,28 16.333333,28 16.333333,28   C 14.333333,28 14.333333,28 14.333333,28   C 17.333333,32.333333 17.333333,32.333333 17.333333,32.333333   C 20.333333,28 20.333333,28 20.333333,28   C 18.333333,28 18.333333,28 18.333333,28   C 18.333333,23.333333 18.333333,23.333333 18.333333,23.333333   C 19,23.333333 20,23 20.666667,22.333333   C 24.333333,26 24.333333,26 24.333333,26   C 22.666667,27.333333 22.666667,27.333333 22.666667,27.333333   C 28.333333,28.333333 28.333333,28.333333 28.333333,28.333333   C 27,23 27,23 27,23   z "
   style="fill:#2a71b9;fill-rule:nonzero;fill-opacity:1;stroke:none;" />
</svg>
