<?xml version="1.0" encoding="UTF-8" standalone="no"?>
<svg
   xmlns:dc="http://purl.org/dc/elements/1.1/"
   xmlns:cc="http://creativecommons.org/ns#"
   xmlns:rdf="http://www.w3.org/1999/02/22-rdf-syntax-ns#"
   xmlns:svg="http://www.w3.org/2000/svg"
   xmlns="http://www.w3.org/2000/svg"
   id="svg19"
   height="9.5334663mm"
   width="12.446mm"
   version="1.0">
  <metadata
   id="metadata23">
  <rdf:RDF>
    <cc:Work
     rdf:about="">
    <dc:format>image/svg+xml</dc:format>
    <dc:type
       rdf:resource="http://purl.org/dc/dcmitype/StillImage" />
    </cc:Work>
  </rdf:RDF>
  </metadata>
  <defs
   id="defs3">
  <pattern
     y="0"
     x="0"
     height="6"
     width="6"
     patternUnits="userSpaceOnUse"
     id="EMFhbasepattern" />
  </defs>
  <path
   id="path5"
   d="  M 1.6666667,35.666667   C 0.66666667,35.666667 0,35 0,34   C 0,2.3333333 0,2.3333333 0,2.3333333   C 0,1.3333333 0.66666667,0.66666667 1.6666667,0.66666667   C 45,0.66666667 45,0.66666667 45,0.66666667   C 46,0.66666667 46.666667,1.3333333 46.666667,2.3333333   C 46.666667,34 46.666667,34 46.666667,34   C 46.666667,35 46,35.666667 45,35.666667   z "
   style="fill:#f0f0f0;fill-rule:nonzero;fill-opacity:1;stroke:none;" />
  <path
   id="path7"
   d="  M 45,1   C 45.666667,1 46.333333,1.6666667 46.333333,2.3333333   C 46.333333,34 46.333333,34 46.333333,34   C 46.333333,34.666667 45.666667,35.333333 45,35.333333   C 1.6666667,35.333333 1.6666667,35.333333 1.6666667,35.333333   C 1,35.333333 0.33333333,34.666667 0.33333333,34   C 0.33333333,2.3333333 0.33333333,2.3333333 0.33333333,2.3333333   C 0.33333333,1.6666667 1,1 1.6666667,1   C 45,1 45,1 45,1   M 45,0.33333333   C 1.6666667,0.33333333 1.6666667,0.33333333 1.6666667,0.33333333   C 0.66666667,0.33333333 -0.33333333,1.3333333 -0.33333333,2.3333333   C -0.33333333,34 -0.33333333,34 -0.33333333,34   C -0.33333333,35 0.66666667,36 1.6666667,36   C 45,36 45,36 45,36   C 46,36 47,35 47,34   C 47,2.3333333 47,2.3333333 47,2.3333333   C 47,1.3333333 46,0.33333333 45,0.33333333   z "
   style="fill:#2a71b9;fill-rule:nonzero;fill-opacity:1;stroke:none;" />
  <path
   id="path9"
   d="  M 6,16.666667   L 6,18.666667   L 11.666667,18.666667   L 11.666667,20.666667   L 14.333333,17.666667   L 11.666667,15   L 11.666667,16.666667   L 6,16.666667  z   "
   style="fill:#2a71b9;fill-rule:nonzero;fill-opacity:1;stroke:none;" />
  <path
   id="path11"
   d="  M 23,24.666667   C 19,24.666667 15.666667,21.666667 15.666667,17.666667   C 15.666667,14 19,10.666667 23,10.666667   C 26.666667,10.666667 30,14 30,17.666667   C 30,21.666667 26.666667,24.666667 23,24.666667   M 23,12.333333   C 19.666667,12.333333 17.333333,14.666667 17.333333,17.666667   C 17.333333,20.666667 19.666667,23.333333 23,23.333333   C 26,23.333333 28.333333,20.666667 28.333333,17.666667   C 28.333333,14.666667 26,12.333333 23,12.333333   z "
   style="fill:#2a71b9;fill-rule:nonzero;fill-opacity:1;stroke:none;" />
  <path
   id="path13"
   d="  M 34,9   C 35,10.666667 35,10.666667 35,10.666667   C 30,13.333333 30,13.333333 30,13.333333   C 30.666667,13.666667 31,14.333333 31,15   C 36,12.333333 36,12.333333 36,12.333333   C 36.666667,13.666667 36.666667,13.666667 36.666667,13.666667   C 37.666667,10 37.666667,10 37.666667,10   z "
   style="fill:#2a71b9;fill-rule:nonzero;fill-opacity:1;stroke:none;" />
  <path
   id="path15"
   d="  M 39.666667,17.666667   C 37,15 37,15 37,15   C 37,16.666667 37,16.666667 37,16.666667   C 31.666667,16.666667 31.666667,16.666667 31.666667,16.666667   C 31.666667,17 31.666667,17.333333 31.666667,17.666667   C 31.666667,18 31.666667,18.333333 31.666667,18.666667   C 37,18.666667 37,18.666667 37,18.666667   C 37,20.666667 37,20.666667 37,20.666667   z "
   style="fill:#2a71b9;fill-rule:nonzero;fill-opacity:1;stroke:none;" />
  <path
   id="path17"
   d="  M 37.666667,25.666667   C 36.666667,21.666667 36.666667,21.666667 36.666667,21.666667   C 36,23.333333 36,23.333333 36,23.333333   C 31,20.666667 31,20.666667 31,20.666667   C 31,21 30.666667,21.666667 30,22.333333   C 35,25 35,25 35,25   C 34,26.666667 34,26.666667 34,26.666667   z "
   style="fill:#2a71b9;fill-rule:nonzero;fill-opacity:1;stroke:none;" />
</svg>
