<?xml version="1.0" standalone="no"?><!DOCTYPE svg PUBLIC "-//W3C//DTD SVG 1.1//EN" "http://www.w3.org/Graphics/SVG/1.1/DTD/svg11.dtd"><svg t="1536522074817" class="icon" style="" viewBox="0 0 1024 1024" version="1.1" xmlns="http://www.w3.org/2000/svg" p-id="6737" xmlns:xlink="http://www.w3.org/1999/xlink" width="200" height="200"><defs><style type="text/css"></style></defs><circle cx="512" cy="512" r="512" fill="white" />
<path d="M512 64C264.6 64 64 264.6 64 512s200.6 448 448 448 448-200.6 448-448S759.4 64 512 64z m192 472c0 4.4-3.6 8-8 8H544v152c0 4.4-3.6 8-8 8h-48c-4.4 0-8-3.6-8-8V544H328c-4.4 0-8-3.6-8-8v-48c0-4.4 3.6-8 8-8h152V328c0-4.4 3.6-8 8-8h48c4.4 0 8 3.6 8 8v152h152c4.4 0 8 3.6 8 8v48z" p-id="6738" data-spm-anchor-id="a313x.7781069.0.i11" class="selected" fill="#d81e06"></path></svg>