<?xml version="1.0" encoding="UTF-8" standalone="no"?>
<svg
   xmlns:dc="http://purl.org/dc/elements/1.1/"
   xmlns:cc="http://creativecommons.org/ns#"
   xmlns:rdf="http://www.w3.org/1999/02/22-rdf-syntax-ns#"
   xmlns:svg="http://www.w3.org/2000/svg"
   xmlns="http://www.w3.org/2000/svg"
   id="svg17"
   height="10.0584mm"
   width="10.066867mm"
   version="1.0">
  <metadata
   id="metadata21">
  <rdf:RDF>
    <cc:Work
     rdf:about="">
    <dc:format>image/svg+xml</dc:format>
    <dc:type
       rdf:resource="http://purl.org/dc/dcmitype/StillImage" />
    </cc:Work>
  </rdf:RDF>
  </metadata>
  <defs
   id="defs3">
  <pattern
     y="0"
     x="0"
     height="6"
     width="6"
     patternUnits="userSpaceOnUse"
     id="EMFhbasepattern" />
  </defs>
  <path
   id="path5"
   d="  M 19,37.666667   C 8.6666667,37.666667 0.33333333,29.333333 0.33333333,19   C 0.33333333,8.6666667 8.6666667,0.33333333 19,0.33333333   C 29.333333,0.33333333 37.666667,8.6666667 37.666667,19   C 37.666667,29.333333 29.333333,37.666667 19,37.666667   z "
   style="fill:#ffffff;fill-rule:nonzero;fill-opacity:1;stroke:none;" />
  <path
   id="path7"
   d="  M 19,0.66666667   C 29,0.66666667 37.333333,9 37.333333,19   C 37.333333,29 29,37.333333 19,37.333333   C 8.6666667,37.333333 0.66666667,29 0.66666667,19   C 0.66666667,9 8.6666667,0.66666667 19,0.66666667   M 19,0   C 8.3333333,0 0,8.3333333 0,19   C 0,29.666667 8.3333333,38 19,38   C 29.333333,38 38,29.666667 38,19   C 38,8.3333333 29.333333,0 19,0   z "
   style="fill:#409eff;fill-rule:nonzero;fill-opacity:1;stroke:none;" />
  <path
   id="path9"
   d="  M 20.666667,20.666667   L 22,28   L 24,26   L 28.666667,30.666667   L 30.666667,29   L 26,24   L 28,22.333333   L 20.666667,20.666667  z   "
   style="fill:#409eff;fill-rule:nonzero;fill-opacity:1;stroke:none;" />
  <path
   id="path11"
   d="  M 17.333333,17.333333   L 10,16   L 12,14   L 7.3333333,9.3333333   L 9.3333333,7.3333333   L 14,12   L 16,10   L 17.333333,17.333333  z   "
   style="fill:#409eff;fill-rule:nonzero;fill-opacity:1;stroke:none;" />
  <path
   id="path13"
   d="  M 29.666667,8.3333333   L 28.333333,15.333333   L 26.333333,13.333333   L 21.666667,18.333333   L 19.666667,16.333333   L 24.333333,11.666667   L 22.666667,9.6666667   L 29.666667,8.3333333  z   "
   style="fill:#409eff;fill-rule:nonzero;fill-opacity:1;stroke:none;" />
  <path
   id="path15"
   d="  M 8.3333333,29.666667   L 9.6666667,22.666667   L 11.666667,24.666667   L 16.333333,19.666667   L 18.333333,21.666667   L 13.333333,26.333333   L 15.333333,28.333333   L 8.3333333,29.666667  z   "
   style="fill:#409eff;fill-rule:nonzero;fill-opacity:1;stroke:none;" />
</svg>
