<?xml version="1.0" encoding="UTF-8" standalone="no"?>
<svg
   xmlns:dc="http://purl.org/dc/elements/1.1/"
   xmlns:cc="http://creativecommons.org/ns#"
   xmlns:rdf="http://www.w3.org/1999/02/22-rdf-syntax-ns#"
   xmlns:svg="http://www.w3.org/2000/svg"
   xmlns="http://www.w3.org/2000/svg"
   id="svg17"
   height="10.854266mm"
   width="9.2625332mm"
   version="1.0">
  <metadata
   id="metadata21">
  <rdf:RDF>
    <cc:Work
     rdf:about="">
    <dc:format>image/svg+xml</dc:format>
    <dc:type
       rdf:resource="http://purl.org/dc/dcmitype/StillImage" />
    </cc:Work>
  </rdf:RDF>
  </metadata>
  <defs
   id="defs3">
  <pattern
     y="0"
     x="0"
     height="6"
     width="6"
     patternUnits="userSpaceOnUse"
     id="EMFhbasepattern" />
  </defs>
  <path
   id="path5"
   d="  M 17,6.6666667   C 26.666667,6.6666667 34,14 34,23.666667   C 34,33 26.666667,40.333333 17,40.333333   C 7.6666667,40.333333 0.33333333,33 0.33333333,23.666667   C 0.33333333,14 7.6666667,6.6666667 17,6.6666667   z "
   style="fill:#ffffff;fill-rule:nonzero;fill-opacity:1;stroke:none;" />
  <path
   id="path7"
   d="  M 30,11.666667   C 30,6.6666667 30,6.6666667 30,6.6666667   C 30,6 29.666667,5.6666667 29,5.3333333   C 29,2.3333333 29,2.3333333 29,2.3333333   C 29.333333,2.3333333 29.333333,2.3333333 29.333333,2.3333333   C 29.333333,0 29.333333,0 29.333333,0   C 28,0 28,0 28,0   C 28,2.3333333 28,2.3333333 28,2.3333333   C 28.333333,2.3333333 28.333333,2.3333333 28.333333,2.3333333   C 28.333333,5.3333333 28.333333,5.3333333 28.333333,5.3333333   C 27.666667,5.6666667 27.333333,6 27.333333,6.6666667   C 27.333333,9.3333333 27.333333,9.3333333 27.333333,9.3333333   C 24.333333,7 21,6 17,6   C 13.333333,6 10,7 7,9.3333333   C 7,6.6666667 7,6.6666667 7,6.6666667   C 7,6 6.6666667,5.6666667 6,5.3333333   C 6,2.3333333 6,2.3333333 6,2.3333333   C 6.3333333,2.3333333 6.3333333,2.3333333 6.3333333,2.3333333   C 6.3333333,0 6.3333333,0 6.3333333,0   C 4.6666667,0 4.6666667,0 4.6666667,0   C 4.6666667,2.3333333 4.6666667,2.3333333 4.6666667,2.3333333   C 5.3333333,2.3333333 5.3333333,2.3333333 5.3333333,2.3333333   C 5.3333333,5.3333333 5.3333333,5.3333333 5.3333333,5.3333333   C 4.6666667,5.6666667 4.3333333,6 4.3333333,6.6666667   C 4.3333333,11.666667 4.3333333,11.666667 4.3333333,11.666667   C 1.3333333,15 -0.33333333,19 -0.33333333,23.333333   C -0.33333333,33 7.6666667,41 17,41   C 26.666667,41 34.666667,33 34.666667,23.333333   C 34.666667,19 33,15 30,11.666667   z  M 17,40   C 8,40 0.66666667,32.666667 0.66666667,23.333333   C 0.66666667,19 2.3333333,15 5,12   C 7,10.333333 7,10.333333 7,10.333333   C 9.6666667,8 13.333333,7 17,7   C 21,7 24.666667,8 27.333333,10.333333   C 29,12 29,12 29,12   C 32,15 33.666667,19 33.666667,23.333333   C 33.666667,32.666667 26.333333,40 17,40   z "
   style="fill:#409eff;fill-rule:nonzero;fill-opacity:1;stroke:none;" />
  <path
   id="path9"
   d="  M 19,25.666667   L 20.666667,32.666667   L 22.333333,30.666667   L 27.333333,35.333333   L 29,33.666667   L 24.333333,29   L 26.333333,27   L 19,25.666667  z   "
   style="fill:#409eff;fill-rule:nonzero;fill-opacity:1;stroke:none;" />
  <path
   id="path11"
   d="  M 15.333333,21.666667   L 8,20.333333   L 10,18.333333   L 5.3333333,13.666667   L 7,11.666667   L 12,16.333333   L 13.666667,14.333333   L 15.333333,21.666667  z   "
   style="fill:#409eff;fill-rule:nonzero;fill-opacity:1;stroke:none;" />
  <path
   id="path13"
   d="  M 27.666667,13   L 26.333333,20   L 24.333333,18.333333   L 19.666667,23   L 17.666667,21   L 22.666667,16.333333   L 20.666667,14.333333   L 27.666667,13  z   "
   style="fill:#409eff;fill-rule:nonzero;fill-opacity:1;stroke:none;" />
  <path
   id="path15"
   d="  M 6.6666667,34.333333   L 8,27   L 10,29   L 14.666667,24.333333   L 16.666667,26   L 11.666667,30.666667   L 13.666667,32.666667   L 6.6666667,34.333333  z   "
   style="fill:#409eff;fill-rule:nonzero;fill-opacity:1;stroke:none;" />
</svg>
