<?xml version="1.0" encoding="UTF-8" standalone="no"?>
<svg
   xmlns:dc="http://purl.org/dc/elements/1.1/"
   xmlns:cc="http://creativecommons.org/ns#"
   xmlns:rdf="http://www.w3.org/1999/02/22-rdf-syntax-ns#"
   xmlns:svg="http://www.w3.org/2000/svg"
   xmlns="http://www.w3.org/2000/svg"
   id="svg13"
   height="9.5334663mm"
   width="9.5334663mm"
   version="1.0">
  <metadata
   id="metadata17">
  <rdf:RDF>
    <cc:Work
     rdf:about="">
    <dc:format>image/svg+xml</dc:format>
    <dc:type
       rdf:resource="http://purl.org/dc/dcmitype/StillImage" />
    </cc:Work>
  </rdf:RDF>
  </metadata>
  <defs
   id="defs3">
  <pattern
     y="0"
     x="0"
     height="6"
     width="6"
     patternUnits="userSpaceOnUse"
     id="EMFhbasepattern" />
  </defs>
  <path
   id="path5"
   d="  M 35.333333,33.333333   C 35.333333,34.333333 34.333333,35 33.333333,35   C 2.6666667,35 2.6666667,35 2.6666667,35   C 1.6666667,35 0.66666667,34.333333 0.66666667,33.333333   C 0.66666667,15.333333 0.66666667,15.333333 0.66666667,15.333333   C 0.66666667,14.333333 1.6666667,13.666667 2.6666667,13.666667   C 33.333333,13.666667 33.333333,13.666667 33.333333,13.666667   C 34.333333,13.666667 35.333333,14.333333 35.333333,15.333333   z "
   style="fill:#ffffff;fill-rule:nonzero;fill-opacity:1;stroke:none;" />
  <path
   id="path7"
   d="  M 33.333333,12.666667   C 31,12.666667 31,12.666667 31,12.666667   C 31,7 31,7 31,7   C 31,6.6666667 30.666667,6 30,6   C 30,2.6666667 30,2.6666667 30,2.6666667   C 30.333333,2.6666667 30.333333,2.6666667 30.333333,2.6666667   C 30.333333,0.33333333 30.333333,0.33333333 30.333333,0.33333333   C 28.666667,0.33333333 28.666667,0.33333333 28.666667,0.33333333   C 28.666667,2.6666667 28.666667,2.6666667 28.666667,2.6666667   C 29,2.6666667 29,2.6666667 29,2.6666667   C 29,6 29,6 29,6   C 28.666667,6 28,6.6666667 28,7   C 28,12.666667 28,12.666667 28,12.666667   C 8,12.666667 8,12.666667 8,12.666667   C 8,7 8,7 8,7   C 8,6.6666667 7.3333333,6 7,6   C 7,2.6666667 7,2.6666667 7,2.6666667   C 7.3333333,2.6666667 7.3333333,2.6666667 7.3333333,2.6666667   C 7.3333333,0.33333333 7.3333333,0.33333333 7.3333333,0.33333333   C 5.6666667,0.33333333 5.6666667,0.33333333 5.6666667,0.33333333   C 5.6666667,2.6666667 5.6666667,2.6666667 5.6666667,2.6666667   C 6,2.6666667 6,2.6666667 6,2.6666667   C 6,6 6,6 6,6   C 5.3333333,6 5,6.6666667 5,7   C 5,12.666667 5,12.666667 5,12.666667   C 2.6666667,12.666667 2.6666667,12.666667 2.6666667,12.666667   C 1,12.666667 0,14 0,15.333333   C 0,33 0,33 0,33   C 0,34.666667 1,36 2.6666667,36   C 33.333333,36 33.333333,36 33.333333,36   C 34.666667,36 36,34.666667 36,33   C 36,15.333333 36,15.333333 36,15.333333   C 36,14 34.666667,12.666667 33.333333,12.666667   z  M 35,33   C 35,34 34.333333,35 33.333333,35   C 2.6666667,35 2.6666667,35 2.6666667,35   C 1.6666667,35 0.66666667,34 0.66666667,33   C 0.66666667,15.333333 0.66666667,15.333333 0.66666667,15.333333   C 0.66666667,14.333333 1.6666667,13.666667 2.6666667,13.666667   C 33.333333,13.666667 33.333333,13.666667 33.333333,13.666667   C 34.333333,13.666667 35,14.333333 35,15.333333   z "
   style="fill:#409eff;fill-rule:nonzero;fill-opacity:1;stroke:none;" />
  <path
   id="path9"
   d="  M 33,26.333333   C 32.333333,26.333333 32.333333,26.333333 32.333333,26.333333   C 32.333333,27 32.333333,27.666667 32,28   C 31.666667,28.333333 31.333333,28.333333 31,28.333333   C 30.333333,28.333333 30,28 29.666667,26.666667   C 29.333333,26 28.666667,24.666667 27.666667,24.666667   C 27.666667,24.666667 27.666667,24.666667 27.666667,24.666667   C 27.666667,24.666667 27.333333,24.666667 27.333333,24.666667   C 27.333333,24.666667 27.333333,24.666667 27.333333,24.666667   C 27.333333,24.666667 27.333333,24.666667 27.333333,24.666667   C 26,24.666667 25.666667,26 25.333333,26.666667   C 25,28 24.666667,28.333333 24,28.333333   C 23,28.333333 22.666667,27.666667 22.333333,26.666667   C 22,25.666667 21.333333,24.666667 20,24.666667   C 20,24.666667 20,24.666667 20,24.666667   C 20,24.666667 20,24.666667 20,24.666667   C 20,24.666667 20,24.666667 20,24.666667   C 20,24.666667 20,24.666667 20,24.666667   C 18.666667,24.666667 18,25.666667 17.666667,26.666667   C 17.333333,27.666667 17,28.333333 16,28.333333   C 15.333333,28.333333 15,28 14.666667,26.666667   C 14.333333,26 14,24.666667 12.666667,24.666667   C 12.666667,24.666667 12.666667,24.666667 12.666667,24.666667   C 12.666667,24.666667 12.666667,24.666667 12.666667,24.666667   C 12.333333,24.666667 12.333333,24.666667 12.333333,24.666667   C 12.333333,24.666667 12.333333,24.666667 12.333333,24.666667   C 11.333333,24.666667 10.666667,26 10.333333,26.666667   C 10,28 9.6666667,28.333333 9,28.333333   C 8.3333333,28.333333 7.6666667,27.666667 7.3333333,26.666667   C 7,25.666667 6.3333333,24.666667 5,24.666667   C 5,24.666667 5,24.666667 5,24.666667   C 3.6666667,25 3,25.666667 2.6666667,26.666667   C 3.3333333,26.666667 3.3333333,26.666667 3.3333333,26.666667   C 3.6666667,26 4.3333333,25.666667 5,25.333333   C 6,25.333333 6.3333333,26 6.6666667,27   C 7,28 7.6666667,29 9,29   C 10.333333,29 10.666667,28 11,27   C 11.333333,26 11.666667,25.333333 12.666667,25.333333   C 13.333333,25.333333 13.666667,26 14,27   C 14.333333,28 14.666667,29 16,29   C 17.333333,29 18,28 18.333333,27   C 18.666667,26 19,25.333333 20,25.333333   C 21,25.333333 21.333333,26 21.666667,27   C 22,28 22.666667,29 24,29   C 25,29 25.666667,28 26,27   C 26.333333,26 26.666667,25.333333 27.333333,25.333333   C 28.333333,25.333333 28.333333,26 29,27   C 29.333333,28 29.666667,29 31,29   C 31.333333,29 32,29 32.333333,28.333333   C 33,28 33.333333,27 33,26.333333   z "
   style="fill:#409eff;fill-rule:nonzero;fill-opacity:1;stroke:none;" />
  <path
   id="path11"
   d="  M 31,24.333333   C 29.333333,24.333333 29,25.666667 28.666667,26.666667   C 28.333333,27.666667 28,28 27.666667,28   C 27.666667,28 27.666667,28 27.666667,28   C 27.333333,28 27.333333,28 27.333333,28   C 27.333333,28 27.333333,28 27.333333,28   C 27.333333,28 27.333333,28 27.333333,28   C 27,28 26.666667,27.666667 26.333333,26.666667   C 26,25.666667 25.333333,24.333333 24,24.333333   C 22.333333,24.333333 21.666667,25.666667 21.333333,26.666667   C 20.666667,27.666667 20.666667,28 20,28   C 20,28 20,28 20,28   C 20,28 20,28 20,28   C 19.333333,28 19,27.666667 18.666667,26.666667   C 18.333333,25.666667 17.666667,24.333333 16,24.333333   C 14.666667,24.333333 14,25.666667 13.666667,26.666667   C 13.333333,27.666667 13,28 12.666667,28   C 12.666667,28 12.666667,28 12.666667,28   C 12.666667,28 12.666667,28 12.666667,28   C 12.333333,28 12.333333,28 12.333333,28   C 12.333333,28 12.333333,28 12.333333,28   C 12,28 11.666667,27.666667 11.333333,26.666667   C 11,25.666667 10.333333,24.333333 9,24.333333   C 7.3333333,24.333333 7,25.666667 6.3333333,26.666667   C 6,27.666667 5.6666667,28 5,28   C 5,28 5,28 5,28   C 4.6666667,28 4.6666667,28 4.3333333,27.666667   C 4,27.333333 4,27 4,26.333333   C 2.3333333,26.333333 2.3333333,26.333333 2.3333333,26.333333   C 2.3333333,27.333333 2.6666667,28 3.3333333,28.666667   C 3.6666667,29 4.3333333,29.333333 5,29.333333   C 5,29.333333 5,29.333333 5,29.333333   C 5,29.333333 5,29.333333 5,29.333333   C 5,29.333333 5,29.333333 5.3333333,29.333333   C 5.3333333,29.333333 5.3333333,29.333333 5.3333333,29.333333   C 6.6666667,29.333333 7.3333333,28 7.6666667,27.333333   C 8,26 8.3333333,25.666667 9,25.666667   C 9.3333333,25.666667 9.6666667,26 10,27   C 10.333333,28 11,29.333333 12.333333,29.333333   C 12.333333,29.333333 12.333333,29.333333 12.333333,29.333333   C 12.333333,29.333333 12.333333,29.333333 12.333333,29.333333   C 12.333333,29.333333 12.333333,29.333333 12.333333,29.333333   C 12.333333,29.333333 12.666667,29.333333 12.666667,29.333333   C 12.666667,29.333333 12.666667,29.333333 12.666667,29.333333   C 12.666667,29.333333 12.666667,29.333333 12.666667,29.333333   C 12.666667,29.333333 12.666667,29.333333 12.666667,29.333333   C 12.666667,29.333333 12.666667,29.333333 12.666667,29.333333   C 14,29.333333 14.666667,28 15,27   C 15.333333,26 15.666667,25.666667 16,25.666667   C 16.666667,25.666667 17,26 17.333333,27.333333   C 17.666667,28 18.333333,29.333333 20,29.333333   C 20,29.333333 20,29.333333 20,29.333333   C 20,29.333333 20,29.333333 20,29.333333   C 20,29.333333 20,29.333333 20,29.333333   C 20,29.333333 20,29.333333 20,29.333333   C 21.666667,29.333333 22,28 22.666667,27.333333   C 23,26 23.333333,25.666667 24,25.666667   C 24.333333,25.666667 24.666667,26 25,27   C 25.333333,28 26,29.333333 27.333333,29.333333   C 27.333333,29.333333 27.333333,29.333333 27.333333,29.333333   C 27.333333,29.333333 27.333333,29.333333 27.333333,29.333333   C 27.333333,29.333333 27.333333,29.333333 27.333333,29.333333   C 27.333333,29.333333 27.333333,29.333333 27.333333,29.333333   C 27.333333,29.333333 27.333333,29.333333 27.333333,29.333333   C 27.333333,29.333333 27.666667,29.333333 27.666667,29.333333   C 27.666667,29.333333 27.666667,29.333333 27.666667,29.333333   C 27.666667,29.333333 27.666667,29.333333 27.666667,29.333333   C 29,29.333333 29.666667,28 30,27   C 30.333333,26.333333 30.333333,25.666667 31,25.666667   C 31.666667,25.666667 32,26.333333 32,26.666667   C 33.333333,26.333333 33.333333,26.333333 33.333333,26.333333   C 33.333333,25.333333 32.333333,24.333333 31,24.333333   z "
   style="fill:#409eff;fill-rule:nonzero;fill-opacity:1;stroke:none;" />
</svg>
