<?xml version="1.0" encoding="UTF-8" standalone="no"?>
<svg
   xmlns:dc="http://purl.org/dc/elements/1.1/"
   xmlns:cc="http://creativecommons.org/ns#"
   xmlns:rdf="http://www.w3.org/1999/02/22-rdf-syntax-ns#"
   xmlns:svg="http://www.w3.org/2000/svg"
   xmlns="http://www.w3.org/2000/svg"
   id="svg21"
   height="9.2625332mm"
   width="12.446mm"
   version="1.0">
  <metadata
   id="metadata25">
  <rdf:RDF>
    <cc:Work
     rdf:about="">
    <dc:format>image/svg+xml</dc:format>
    <dc:type
       rdf:resource="http://purl.org/dc/dcmitype/StillImage" />
    </cc:Work>
  </rdf:RDF>
  </metadata>
  <defs
   id="defs3">
  <pattern
     y="0"
     x="0"
     height="6"
     width="6"
     patternUnits="userSpaceOnUse"
     id="EMFhbasepattern" />
  </defs>
  <path
   id="path5"
   d="  M 1.6666667,35   C 0.66666667,35 0,34 0,33.333333   C 0,1.6666667 0,1.6666667 0,1.6666667   C 0,0.66666667 0.66666667,0 1.6666667,0   C 44.666667,0 44.666667,0 44.666667,0   C 45.666667,0 46.333333,0.66666667 46.333333,1.6666667   C 46.333333,33.333333 46.333333,33.333333 46.333333,33.333333   C 46.333333,34 45.666667,35 44.666667,35   z "
   style="fill:#fafafa;fill-rule:nonzero;fill-opacity:1;stroke:none;" />
  <path
   id="path7"
   d="  M 44.666667,0.33333333   C 45.666667,0.33333333 46,1 46,1.6666667   C 46,33.333333 46,33.333333 46,33.333333   C 46,34 45.666667,34.666667 44.666667,34.666667   C 1.6666667,34.666667 1.6666667,34.666667 1.6666667,34.666667   C 0.66666667,34.666667 0.33333333,34 0.33333333,33.333333   C 0.33333333,1.6666667 0.33333333,1.6666667 0.33333333,1.6666667   C 0.33333333,1 0.66666667,0.33333333 1.6666667,0.33333333   C 44.666667,0.33333333 44.666667,0.33333333 44.666667,0.33333333   M 44.666667,-0.33333333   C 1.6666667,-0.33333333 1.6666667,-0.33333333 1.6666667,-0.33333333   C 0.33333333,-0.33333333 -0.33333333,0.66666667 -0.33333333,1.6666667   C -0.33333333,33.333333 -0.33333333,33.333333 -0.33333333,33.333333   C -0.33333333,34.333333 0.33333333,35.333333 1.6666667,35.333333   C 44.666667,35.333333 44.666667,35.333333 44.666667,35.333333   C 46,35.333333 46.666667,34.333333 46.666667,33.333333   C 46.666667,1.6666667 46.666667,1.6666667 46.666667,1.6666667   C 46.666667,0.66666667 46,-0.33333333 44.666667,-0.33333333   z "
   style="fill:#2a71b9;fill-rule:nonzero;fill-opacity:1;stroke:none;" />
  <path
   id="path9"
   d="  M 38.333333,29.333333   C 37.666667,29.333333 37.666667,29.333333 37.666667,29.333333   C 37.666667,30 37.333333,30.666667 37,31   C 37,31 36.666667,31.333333 36,31.333333   C 35.333333,31.333333 35,30.666667 34.666667,29.666667   C 34.333333,29 34,27.666667 32.666667,27.666667   C 32.666667,27.666667 32.666667,27.666667 32.666667,27.666667   C 32.666667,27.666667 32.666667,27.666667 32.666667,27.666667   C 32.666667,27.666667 32.333333,27.666667 32.333333,27.666667   C 32.333333,27.666667 32.333333,27.666667 32.333333,27.666667   C 31.333333,27.666667 31,29 30.333333,29.666667   C 30,30.666667 29.666667,31.333333 29,31.333333   C 28.333333,31.333333 28,30.666667 27.333333,29.666667   C 27,28.666667 26.666667,27.666667 25.333333,27.666667   C 25.333333,27.666667 25.333333,27.666667 25.333333,27.666667   C 25.333333,27.666667 25.333333,27.666667 25.333333,27.666667   C 25,27.666667 25,27.666667 25,27.666667   C 25,27.666667 25,27.666667 25,27.666667   C 23.666667,27.666667 23.333333,28.666667 23,29.666667   C 22.333333,30.666667 22,31.333333 21.333333,31.333333   C 20.333333,31.333333 20.333333,30.666667 19.666667,29.666667   C 19.333333,29 19,27.666667 18,27.666667   C 18,27.666667 18,27.666667 18,27.666667   C 17.666667,27.666667 17.666667,27.666667 17.666667,27.666667   C 17.666667,27.666667 17.666667,27.666667 17.666667,27.666667   C 17.666667,27.666667 17.666667,27.666667 17.666667,27.666667   C 16.333333,27.666667 16,29 15.666667,29.666667   C 15.333333,30.666667 15,31.333333 14.333333,31.333333   C 13.333333,31.333333 13,30.666667 12.666667,29.666667   C 12,28.666667 11.666667,27.666667 10.333333,27.666667   C 10.333333,27.666667 10.333333,27.666667 10.333333,27.666667   C 9,28 8.3333333,28.666667 8,29.666667   C 8.6666667,29.666667 8.6666667,29.666667 8.6666667,29.666667   C 9,29 9.3333333,28.666667 10.333333,28.333333   C 11,28.333333 11.333333,29 12,30   C 12.333333,31 13,32 14.333333,32   C 15.333333,32 16,31 16.333333,30   C 16.666667,29 17,28.333333 17.666667,28.333333   C 18.333333,28.333333 18.666667,29 19.333333,30   C 19.666667,31 20,32 21.333333,32   C 22.666667,32 23,31 23.666667,30   C 24,29 24.333333,28.333333 25,28.333333   C 26,28.333333 26.333333,29 26.666667,30   C 27.333333,31 27.666667,32 29,32   C 30.333333,32 30.666667,31 31,30   C 31.666667,29 32,28.333333 32.666667,28.333333   C 33.333333,28.333333 33.666667,29 34,30   C 34.333333,31 35,32 36,32   C 36.666667,32 37.333333,32 37.666667,31.333333   C 38,30.666667 38.333333,30 38.333333,29.333333   z "
   style="fill:#2a71b9;fill-rule:nonzero;fill-opacity:1;stroke:none;" />
  <path
   id="path11"
   d="  M 36,27.333333   C 34.666667,27.333333 34,28.666667 33.666667,29.666667   C 33.333333,30.666667 33,31 32.666667,31   C 32.666667,31 32.666667,31 32.666667,31   C 32.666667,31 32.666667,31 32.666667,31   C 32.666667,31 32.666667,31 32.666667,31   C 32.666667,31 32.666667,31 32.666667,31   C 32,31 32,30.666667 31.333333,29.666667   C 31,28.666667 30.666667,27.333333 29,27.333333   C 27.666667,27.333333 27,28.666667 26.666667,29.666667   C 26,30.666667 25.666667,31 25.333333,31   C 25,31 25,31 25,31   C 25,31 25,31 25,31   C 24.666667,31 24.333333,30.666667 23.666667,29.666667   C 23.333333,28.666667 22.666667,27.333333 21.333333,27.333333   C 19.666667,27.333333 19.333333,28.666667 19,29.666667   C 18.333333,30.666667 18.333333,31 17.666667,31   C 17.666667,31 17.666667,31 17.666667,31   C 17.666667,31 17.666667,31 17.666667,31   C 17.666667,31 17.666667,31 17.666667,31   C 17.666667,31 17.666667,31 17.666667,31   C 17.333333,31 17,30.666667 16.666667,29.666667   C 16.333333,28.666667 15.666667,27.333333 14.333333,27.333333   C 12.666667,27.333333 12,28.666667 11.666667,29.666667   C 11,30.666667 10.666667,31 10.333333,31   C 10.333333,31 10.333333,31 10.333333,31   C 10,31 9.6666667,31 9.3333333,30.666667   C 9,30.333333 9,30 9,29.333333   C 7.6666667,29.333333 7.6666667,29.333333 7.6666667,29.333333   C 7.6666667,30 8,31 8.3333333,31.666667   C 9,32 9.3333333,32.333333 10,32.333333   C 10,32.333333 10,32.333333 10,32.333333   C 10,32.333333 10,32.333333 10,32.333333   C 10.333333,32.333333 10.333333,32.333333 10.333333,32.333333   C 10.333333,32.333333 10.333333,32.333333 10.333333,32.333333   C 12,32.333333 12.333333,31 13,30   C 13.333333,29 13.666667,28.666667 14.333333,28.666667   C 14.666667,28.666667 15,29 15.333333,30   C 15.666667,31 16,32.333333 17.333333,32.333333   C 17.333333,32.333333 17.333333,32.333333 17.333333,32.333333   C 17.666667,32.333333 17.666667,32.333333 17.666667,32.333333   C 17.666667,32.333333 17.666667,32.333333 17.666667,32.333333   C 17.666667,32.333333 17.666667,32.333333 17.666667,32.333333   C 17.666667,32.333333 17.666667,32.333333 17.666667,32.333333   C 17.666667,32.333333 17.666667,32.333333 17.666667,32.333333   C 18,32.333333 18,32.333333 18,32.333333   C 18,32.333333 18,32.333333 18,32.333333   C 19.333333,32.333333 19.666667,31 20,30   C 20.666667,29 20.666667,28.666667 21.333333,28.666667   C 21.666667,28.666667 22,29 22.666667,30   C 23,31 23.666667,32.333333 25,32.333333   C 25,32.333333 25,32.333333 25,32.333333   C 25,32.333333 25,32.333333 25.333333,32.333333   C 25.333333,32.333333 25.333333,32.333333 25.333333,32.333333   C 25.333333,32.333333 25.333333,32.333333 25.333333,32.333333   C 26.666667,32.333333 27.333333,31 27.666667,30   C 28.333333,29 28.666667,28.666667 29,28.666667   C 29.666667,28.666667 29.666667,29 30.333333,30   C 30.666667,31 31,32.333333 32.333333,32.333333   C 32.333333,32.333333 32.333333,32.333333 32.333333,32.333333   C 32.333333,32.333333 32.333333,32.333333 32.666667,32.333333   C 32.666667,32.333333 32.666667,32.333333 32.666667,32.333333   C 32.666667,32.333333 32.666667,32.333333 32.666667,32.333333   C 32.666667,32.333333 32.666667,32.333333 32.666667,32.333333   C 32.666667,32.333333 32.666667,32.333333 32.666667,32.333333   C 32.666667,32.333333 32.666667,32.333333 33,32.333333   C 33,32.333333 33,32.333333 33,32.333333   C 34.333333,32.333333 34.666667,31 35,30   C 35.333333,29 35.666667,28.666667 36,28.666667   C 37,28.666667 37.333333,29.333333 37.333333,29.666667   C 38.666667,29.333333 38.666667,29.333333 38.666667,29.333333   C 38.333333,28.333333 37.666667,27.333333 36,27.333333   z "
   style="fill:#2a71b9;fill-rule:nonzero;fill-opacity:1;stroke:none;" />
  <path
   id="path13"
   d="  M 27,15.666667   L 30,20.333333   L 30.666667,18.333333   L 37,21   L 38,19.333333   L 31.666667,16.666667   L 32.333333,14.666667   L 27,15.666667  z   "
   style="fill:#2a71b9;fill-rule:nonzero;fill-opacity:1;stroke:none;" />
  <path
   id="path15"
   d="  M 19.333333,15.666667   L 16.333333,20.333333   L 15.666667,18.333333   L 9.3333333,21   L 8.3333333,19.333333   L 14.666667,16.666667   L 14,14.666667   L 19.333333,15.666667  z   "
   style="fill:#2a71b9;fill-rule:nonzero;fill-opacity:1;stroke:none;" />
  <path
   id="path17"
   d="  M 23,15.666667   L 26.333333,20.333333   L 24,20.333333   L 24,25.666667   L 22,25.666667   L 22,20.333333   L 20,20.333333   L 23,15.666667  z   "
   style="fill:#2a71b9;fill-rule:nonzero;fill-opacity:1;stroke:none;" />
  <path
   id="path19"
   d="  M 23,2.6666667   L 27.333333,7.3333333   L 25.333333,7.3333333   L 25.333333,14.333333   L 21,14.333333   L 21,7.3333333   L 19,7.3333333   L 23,2.6666667  z   "
   style="fill:#2a71b9;fill-rule:nonzero;fill-opacity:1;stroke:none;" />
</svg>
