<?xml version="1.0" encoding="UTF-8" standalone="no"?>
<svg
   xmlns:dc="http://purl.org/dc/elements/1.1/"
   xmlns:cc="http://creativecommons.org/ns#"
   xmlns:rdf="http://www.w3.org/1999/02/22-rdf-syntax-ns#"
   xmlns:svg="http://www.w3.org/2000/svg"
   xmlns="http://www.w3.org/2000/svg"
   id="svg11"
   height="5.8250666mm"
   width="7.4168mm"
   version="1.0">
  <metadata
   id="metadata15">
  <rdf:RDF>
    <cc:Work
     rdf:about="">
    <dc:format>image/svg+xml</dc:format>
    <dc:type
       rdf:resource="http://purl.org/dc/dcmitype/StillImage" />
    </cc:Work>
  </rdf:RDF>
  </metadata>
  <defs
   id="defs3">
  <pattern
     y="0"
     x="0"
     height="6"
     width="6"
     patternUnits="userSpaceOnUse"
     id="EMFhbasepattern" />
  </defs>
  <path
   id="path5"
   d="  M 27.666667,15   C 27.666667,16.666667 26.333333,17.666667 25,17.666667   C 3,17.666667 3,17.666667 3,17.666667   C 1.6666667,17.666667 0.33333333,16.666667 0.33333333,15   C 0.33333333,2.6666667 0.33333333,2.6666667 0.33333333,2.6666667   C 0.33333333,1 1.6666667,0 3,0   C 25,0 25,0 25,0   C 26.333333,0 27.666667,1 27.666667,2.6666667   z "
   style="fill:#ffffff;fill-rule:nonzero;fill-opacity:1;stroke:none;" />
  <path
   id="path7"
   d="  M 24.333333,15   L 3.6666667,15   L 3.6666667,2.6666667   L 24.333333,2.6666667   L 24.333333,15  z   "
   style="fill:#2a71b9;fill-rule:nonzero;fill-opacity:1;stroke:none;" />
  <path
   id="path9"
   d="  M 25,0   C 3,0 3,0 3,0   C 1.6666667,0 0.33333333,1 0.33333333,2.6666667   C 0.33333333,15 0.33333333,15 0.33333333,15   C 0.33333333,16.666667 1.6666667,17.666667 3,17.666667   C 11.666667,17.666667 11.666667,17.666667 11.666667,17.666667   C 11.666667,19.666667 11.666667,19.666667 11.666667,19.666667   C 8,19.666667 8,19.666667 8,19.666667   C 7.3333333,19.666667 6.6666667,20 6.6666667,20.666667   C 6.6666667,21.333333 7.3333333,22 8,22   C 20,22 20,22 20,22   C 20.666667,22 21.333333,21.333333 21.333333,20.666667   C 21.333333,20 20.666667,19.666667 20,19.666667   C 16.666667,19.666667 16.666667,19.666667 16.666667,19.666667   C 16.666667,17.666667 16.666667,17.666667 16.666667,17.666667   C 25,17.666667 25,17.666667 25,17.666667   C 26.333333,17.666667 27.666667,16.666667 27.666667,15   C 27.666667,2.6666667 27.666667,2.6666667 27.666667,2.6666667   C 27.666667,1 26.333333,0 25,0   z  M 26.333333,15   C 26.333333,15.666667 25.666667,16.333333 25,16.333333   C 3,16.333333 3,16.333333 3,16.333333   C 2.3333333,16.333333 1.6666667,15.666667 1.6666667,15   C 1.6666667,2.6666667 1.6666667,2.6666667 1.6666667,2.6666667   C 1.6666667,2 2.3333333,1.3333333 3,1.3333333   C 25,1.3333333 25,1.3333333 25,1.3333333   C 25.666667,1.3333333 26.333333,2 26.333333,2.6666667   z "
   style="fill:#2a71b9;fill-rule:nonzero;fill-opacity:1;stroke:none;" />
</svg>
