<?xml version="1.0" encoding="UTF-8" standalone="no"?>
<svg
   xmlns:dc="http://purl.org/dc/elements/1.1/"
   xmlns:cc="http://creativecommons.org/ns#"
   xmlns:rdf="http://www.w3.org/1999/02/22-rdf-syntax-ns#"
   xmlns:svg="http://www.w3.org/2000/svg"
   xmlns="http://www.w3.org/2000/svg"
   id="svg22"
   height="10.0584mm"
   width="11.650133mm"
   version="1.0">
  <metadata
   id="metadata26">
  <rdf:RDF>
    <cc:Work
     rdf:about="">
    <dc:format>image/svg+xml</dc:format>
    <dc:type
       rdf:resource="http://purl.org/dc/dcmitype/StillImage" />
    </cc:Work>
  </rdf:RDF>
  </metadata>
  <defs
   id="defs6">
  <clipPath
     id="clipEmfPath1"
     clipPathUnits="userSpaceOnUse">
    <path
     id="path2"
     d="  M 22,0.66666667   C 32.333333,0.66666667 40.333333,8.6666667 40.333333,19   C 40.333333,29 32.333333,37.333333 22,37.333333   C 12,37.333333 3.6666667,29 3.6666667,19   C 3.6666667,8.6666667 12,0.66666667 22,0.66666667   z" />
  </clipPath>
  <pattern
     y="0"
     x="0"
     height="6"
     width="6"
     patternUnits="userSpaceOnUse"
     id="EMFhbasepattern" />
  </defs>
  <path
   id="path8"
   d="  M 22,37.666667   C 11.666667,37.666667 3.3333333,29.333333 3.3333333,19   C 3.3333333,8.6666667 11.666667,0.33333333 22,0.33333333   C 32.333333,0.33333333 40.666667,8.6666667 40.666667,19   C 40.666667,29.333333 32.333333,37.666667 22,37.666667   z "
   style="fill:#ffffff;fill-rule:nonzero;fill-opacity:1;stroke:none;" />
  <path
   id="path10"
   d="  M 22,0.66666667   C 32.333333,0.66666667 40.333333,8.6666667 40.333333,19   C 40.333333,29 32.333333,37.333333 22,37.333333   C 12,37.333333 3.6666667,29 3.6666667,19   C 3.6666667,8.6666667 12,0.66666667 22,0.66666667   M 22,0   C 11.666667,0 3,8.3333333 3,19   C 3,29.333333 11.666667,38 22,38   C 32.666667,38 41,29.333333 41,19   C 41,8.3333333 32.666667,0 22,0   z "
   style="fill:#409eff;fill-rule:nonzero;fill-opacity:1;stroke:none;" />
  <path
   id="path12"
   d="  M 44,4.6666667   L 44,3.3333333   L 0,3.3333333   L 0,4.6666667   L 13.333333,4.6666667   L 13.333333,9.3333333   L 0,9.3333333   L 0,9.3333333   L 0,10.666667   L 0,10.666667   L 4.6666667,10.666667   L 4.6666667,15.333333   L 0,15.333333   L 0,16.666667   L 13.333333,16.666667   L 13.333333,21.333333   L 0,21.333333   L 0,21.333333   L 0,22.666667   L 0,22.666667   L 4.6666667,22.666667   L 4.6666667,27.333333   L 0,27.333333   L 0,28.666667   L 13.333333,28.666667   L 13.333333,33.333333   L 0,33.333333   L 0,34.666667   L 44,34.666667   L 44,33.333333   L 31.666667,33.333333   L 31.666667,28.666667   L 44,28.666667   L 44,27.333333   L 40,27.333333   L 40,22.666667   L 44,22.666667   L 44,22.666667   L 44,21.333333   L 44,21.333333   L 31.666667,21.333333   L 31.666667,16.666667   L 44,16.666667   L 44,15.333333   L 40,15.333333   L 40,10.666667   L 44,10.666667   L 44,10.666667   L 44,9.3333333   L 44,9.3333333   L 31.666667,9.3333333   L 31.666667,4.6666667   L 44,4.6666667  z  M 6,27.333333   L 6,22.666667   L 21.666667,22.666667   L 21.666667,27.333333   L 6,27.333333  z  M 30.333333,33.333333   L 14.666667,33.333333   L 14.666667,28.666667   L 30.333333,28.666667   L 30.333333,33.333333  z  M 38.666667,27.333333   L 23,27.333333   L 23,22.666667   L 38.666667,22.666667   L 38.666667,27.333333  z  M 6,15.333333   L 6,10.666667   L 21.666667,10.666667   L 21.666667,15.333333   L 6,15.333333  z  M 30.333333,16.666667   L 30.333333,21.333333   L 14.666667,21.333333   L 14.666667,16.666667   L 30.333333,16.666667  z  M 38.666667,15.333333   L 23,15.333333   L 23,10.666667   L 38.666667,10.666667   L 38.666667,15.333333  z  M 14.666667,9.3333333   L 14.666667,4.6666667   L 30.333333,4.6666667   L 30.333333,9.3333333   L 14.666667,9.3333333  z   "
   clip-path="url(#clipEmfPath1)"
   style="fill:#aac6e3;fill-rule:nonzero;fill-opacity:1;stroke:none;" />
  <path
   id="path14"
   d="  M 23.666667,20.666667   L 25.333333,28   L 27,26   L 32,30.666667   L 33.666667,28.666667   L 29,24   L 31,22   L 23.666667,20.666667  z   "
   style="fill:#409eff;fill-rule:nonzero;fill-opacity:1;stroke:none;" />
  <path
   id="path16"
   d="  M 20.333333,17.333333   L 13.333333,15.666667   L 15,14   L 10.333333,9   L 12.333333,7.3333333   L 17,12   L 19,10   L 20.333333,17.333333  z   "
   style="fill:#409eff;fill-rule:nonzero;fill-opacity:1;stroke:none;" />
  <path
   id="path18"
   d="  M 32.666667,8.3333333   L 31.333333,15.333333   L 29.333333,13.333333   L 24.666667,18.333333   L 22.666667,16.333333   L 27.666667,11.666667   L 25.666667,9.6666667   L 32.666667,8.3333333  z   "
   style="fill:#409eff;fill-rule:nonzero;fill-opacity:1;stroke:none;" />
  <path
   id="path20"
   d="  M 11.333333,29.666667   L 12.666667,22.666667   L 14.666667,24.333333   L 19.333333,19.666667   L 21.333333,21.666667   L 16.666667,26.333333   L 18.333333,28.333333   L 11.333333,29.666667  z   "
   style="fill:#409eff;fill-rule:nonzero;fill-opacity:1;stroke:none;" />
</svg>
