<?xml version="1.0" standalone="no"?><!DOCTYPE svg PUBLIC "-//W3C//DTD SVG 1.1//EN" "http://www.w3.org/Graphics/SVG/1.1/DTD/svg11.dtd"><svg t="1540931454622" class="icon" style="" viewBox="0 0 1024 1024" version="1.1" xmlns="http://www.w3.org/2000/svg" p-id="6504" xmlns:xlink="http://www.w3.org/1999/xlink" width="200" height="200"><defs><style type="text/css"></style></defs><path d="M941.32 841.92q35.08-0.84 58.47-24.22 23.38-22.55 24.22-58.47V82.69q-0.84-35.92-24.23-58.88Q976.4 0.84 941.31 0H82.69Q47.61 0.84 24.23 23.81 0.84 46.77 0 82.69v676.54q0.84 35.92 24.22 58.47 23.39 23.38 58.47 24.22H941.31zM757.57 377.53v-38.42h135.31v38.42h-48.45v275.62h48.45v37.59H757.57v-37.59h49.28V377.53h-49.28zM482.78 690.74V339.11h103.57q43.43 1.67 73.08 30.9 29.65 29.23 30.49 72.67-0.84 44.26-30.91 73.5-29.23 28.39-72.66 30.06h-65.99v144.5h-37.58z m-310.71 0h-40.93L263.11 344.12v-4.18h1.67l0.84-2.5 5.01 2.5h21.71l5.01-2.5 0.84 2.5h1.67v5.01l131.13 345.79h-40.09l-37.58-95.22h-144.5l-36.75 95.22zM960.53 101.9v92.71H63.49V101.9q0-15.04 10.86-25.89 10.02-10.03 25.89-10.86h823.54q15.87 0.83 25.89 10.86 10.86 10.85 10.86 25.89zM409.28 91.04q-16.71 0-28.4 11.69-11.7 10.86-12.53 28.4 0.83 16.71 12.53 29.24 11.69 10.85 28.4 11.69 17.54-0.84 29.23-12.53 11.69-11.69 11.69-28.4 0-17.54-11.69-28.4-11.69-11.69-29.23-11.69z m-13.37 40.09q0.84-12.53 13.37-13.36 12.52 0.83 14.19 13.36-1.67 11.7-14.19 13.37-12.53-1.67-13.37-13.37z m123.62-40.09q-17.54 0-29.24 11.69-10.85 10.86-11.69 28.4 0.84 16.71 11.69 29.24 11.7 10.85 29.24 11.69 17.54-0.84 28.82-12.53 11.27-11.69 12.11-28.4-0.83-17.54-11.69-28.4-11.69-11.69-29.23-11.69z m0 53.46q-12.53-1.67-13.37-13.37 0.84-12.53 13.37-13.36 12.53 0.83 13.36 13.36-0.83 11.7-13.36 13.37z m110.25-53.46q-17.54 0-29.23 11.69-11.7 10.86-11.7 28.4 0 16.71 11.7 28.4 11.69 11.69 29.23 12.53 16.7-0.84 28.4-11.69 11.69-12.53 13.36-29.24-1.67-17.54-13.36-28.4-11.7-11.69-28.4-11.69z m0 53.46q-12.53-1.67-14.2-13.37 1.67-12.53 14.2-13.36 12.53 0.83 13.36 13.36-0.83 11.7-13.36 13.37zM339.12 557.1l-57.64-156.19-58.46 156.19h116.1z m312.37-114.42q0-27.57-19.21-45.94-18.37-18.38-45.93-19.21h-65.99v131.13h65.99q27.56-0.84 46.77-19.21 18.37-19.21 18.37-46.77z" p-id="6505"></path></svg>