<?xml version="1.0" standalone="no"?><!DOCTYPE svg PUBLIC "-//W3C//DTD SVG 1.1//EN" "http://www.w3.org/Graphics/SVG/1.1/DTD/svg11.dtd"><svg t="1540914694688" class="icon" style="" viewBox="0 0 1024 1024" version="1.1" xmlns="http://www.w3.org/2000/svg" p-id="14449" xmlns:xlink="http://www.w3.org/1999/xlink" width="200" height="200"><defs><style type="text/css"></style></defs><path d="M391.111111 952.888889h-256c-48.355556 0-88.177778-38.4-88.177778-86.755556V132.266667c0-48.355556 39.822222-86.755556 88.177778-86.755556H725.333333c48.355556 0 88.177778 38.4 88.177778 86.755556V398.222222h-52.622222V132.266667c0-18.488889-15.644444-34.133333-35.555556-34.133334H135.111111C115.2 96.711111 99.555556 112.355556 99.555556 132.266667v733.866666c0 18.488889 15.644444 34.133333 35.555555 34.133334h256V952.888889z" p-id="14450"></path><path d="M213.333333 203.377778h405.333334v68.266666H213.333333zM213.333333 384h203.377778v68.266667H213.333333zM213.333333 567.466667h143.644445v68.266666H213.333333zM786.488889 996.977778H640L625.777778 924.444444l-59.733334 42.666667-103.822222-103.822222 41.244445-61.155556-72.533334-12.8V641.422222l72.533334-12.8-41.244445-61.155555 103.822222-103.822223 61.155556 41.244445 12.8-72.533333h146.488889l12.8 72.533333 61.155555-41.244445 103.822223 103.822223-41.244445 61.155555 72.533334 12.8v146.488889l-72.533334 12.8 41.244445 61.155556-103.822223 105.244444-59.733333-42.666667-14.222222 72.533334z m-113.777778-39.822222H753.777778l14.222222-73.955556 9.955556-4.266667c2.844444-1.422222 4.266667-1.422222 7.111111-2.844444l9.955555-4.266667 61.155556 42.666667 56.888889-56.888889-42.666667-61.155556 4.266667-9.955555c1.422222-2.844444 1.422222-4.266667 2.844444-7.111111l4.266667-11.377778 73.955555-14.222222v-79.644445l-73.955555-14.222222-4.266667-9.955555c-1.422222-2.844444-1.422222-4.266667-2.844444-7.111112l-4.266667-9.955555 42.666667-61.155556-56.888889-56.888889-61.155556 42.666667-9.955555-4.266667c-2.844444-1.422222-4.266667-1.422222-7.111111-2.844444l-9.955556-4.266667-14.222222-73.955555h-79.644445l-14.222222 73.955555-9.955555 4.266667c-2.844444 1.422222-4.266667 1.422222-7.111112 2.844444l-9.955555 4.266667-61.155556-42.666667-56.888889 56.888889 42.666667 61.155556-4.266667 9.955555c-1.422222 2.844444-1.422222 4.266667-2.844444 7.111112l-4.266667 9.955555-73.955555 14.222222V753.777778l73.955555 14.222222 4.266667 9.955556c1.422222 2.844444 1.422222 4.266667 2.844444 7.111111l4.266667 9.955555-42.666667 61.155556 56.888889 56.888889 61.155556-42.666667 9.955555 4.266667c2.844444 1.422222 4.266667 1.422222 7.111112 2.844444l9.955555 4.266667 12.8 75.377778z m41.244445-130.844445c-61.155556 0-110.933333-49.777778-110.933334-110.933333s49.777778-110.933333 110.933334-110.933334S824.888889 654.222222 824.888889 715.377778s-49.777778 110.933333-110.933333 110.933333z m0-182.044444c-39.822222 0-71.111111 31.288889-71.111112 71.111111s31.288889 71.111111 71.111112 71.111111 71.111111-31.288889 71.111111-71.111111c-1.422222-39.822222-32.711111-71.111111-71.111111-71.111111z" p-id="14451"></path></svg>