<?xml version="1.0" standalone="no"?><!DOCTYPE svg PUBLIC "-//W3C//DTD SVG 1.1//EN" "http://www.w3.org/Graphics/SVG/1.1/DTD/svg11.dtd"><svg t="1565644286958" class="icon" viewBox="0 0 1024 1024" version="1.1" xmlns="http://www.w3.org/2000/svg" p-id="1174" xmlns:xlink="http://www.w3.org/1999/xlink" width="200" height="200"><defs><style type="text/css"></style></defs><path d="M947.498667 733.397333l-324.693334-567.765333A124.074667 124.074667 0 0 0 514.304 102.4h-0.469333A124.16 124.16 0 0 0 405.333333 164.906667L76.928 730.538667a124.458667 124.458667 0 0 0-0.384 125.781333 124.16 124.16 0 0 0 108.458667 63.104l653.184 2.133333h0.426666a124.288 124.288 0 0 0 108.458667-62.378666 124.672 124.672 0 0 0 0.426667-125.781334z m-44.714667 100.053334a73.514667 73.514667 0 0 1-64.213333 36.949333h-0.256L185.173333 868.266667a73.642667 73.642667 0 0 1-64.213333-37.376 73.984 73.984 0 0 1 0.213333-74.624l328.405334-565.632a73.642667 73.642667 0 0 1 64.256-37.034667h0.298666c26.837333 0.085333 50.858667 14.08 64.256 37.461333l324.693334 567.765334a73.984 73.984 0 0 1-0.298667 74.624zM486.4 601.6V398.933333a25.6 25.6 0 1 1 51.2 0v202.666667a25.6 25.6 0 1 1-51.2 0z m59.733333 117.504a34.133333 34.133333 0 1 1-68.266666 0.085333 34.133333 34.133333 0 0 1 68.266666-0.085333z" p-id="1175"></path></svg>