<?xml version="1.0" standalone="no"?><!DOCTYPE svg PUBLIC "-//W3C//DTD SVG 1.1//EN" "http://www.w3.org/Graphics/SVG/1.1/DTD/svg11.dtd"><svg t="1570780573743" class="icon" viewBox="0 0 1024 1024" version="1.1" xmlns="http://www.w3.org/2000/svg" p-id="1117" xmlns:xlink="http://www.w3.org/1999/xlink" width="200" height="200"><defs><style type="text/css"></style></defs><path d="M495.104 84.48c-38.4 48.128-163.84 109.568-319.488 156.16l-52.736 15.872v65.024c0 75.264 11.264 179.2 25.6 240.64 32.256 135.168 165.888 290.816 328.192 382.976 17.408 9.728 33.28 17.408 35.328 17.408 8.192 0 111.616-71.168 162.304-111.616 80.384-65.024 138.752-133.632 168.448-197.12 26.624-58.368 50.688-198.656 56.832-329.728l3.072-67.072-22.528-6.144c-61.952-15.872-179.712-58.88-225.792-81.92-58.368-29.184-109.056-63.488-128.512-87.04-7.168-8.192-13.824-15.36-14.848-15.36-1.024 0-8.192 8.192-15.872 17.92z m48.64 77.312c57.856 42.496 163.328 89.6 269.824 119.808l37.888 11.264-3.072 61.952c-4.608 82.944-21.504 194.048-36.864 243.712-7.168 22.016-22.016 54.272-33.792 72.704-40.96 62.976-138.24 153.088-228.864 211.456L512 906.752l-25.088-13.312c-79.36-43.52-180.224-137.216-233.984-217.6-37.888-57.344-53.76-97.792-65.536-167.936-7.68-45.568-21.504-210.432-17.408-212.992 0.512-0.512 38.4-13.312 82.944-27.648C345.6 236.544 433.664 195.584 478.72 161.28c16.896-12.8 31.232-23.04 31.744-23.04 1.024 0 15.872 10.752 33.28 23.552z" p-id="1118"></path><path d="M464.896 268.288c-29.184 10.752-43.52 21.504-58.368 44.032-37.376 56.832-18.944 132.608 40.448 163.84l24.064 12.8V768h122.88v-56.32H527.36V665.6h66.56v-56.32H527.36V487.936l20.48-9.216c54.272-24.576 80.896-91.136 58.368-144.896-8.704-21.504-34.304-49.664-54.272-60.416-20.48-10.752-65.024-13.312-87.04-5.12z" p-id="1119"></path></svg>