<?xml version="1.0" standalone="no"?><!DOCTYPE svg PUBLIC "-//W3C//DTD SVG 1.1//EN" "http://www.w3.org/Graphics/SVG/1.1/DTD/svg11.dtd"><svg t="1565898583716" class="icon" viewBox="0 0 1024 1024" version="1.1" xmlns="http://www.w3.org/2000/svg" p-id="1188" xmlns:xlink="http://www.w3.org/1999/xlink" width="200" height="200"><defs><style type="text/css"></style></defs><path d="M512 25.6c-266.24 0-486.4 220.16-486.4 486.4s220.16 486.4 486.4 486.4 486.4-220.16 486.4-486.4-220.16-486.4-486.4-486.4z m0 926.72c-240.64 0-440.32-199.68-440.32-440.32 0-240.64 199.68-440.32 440.32-440.32 240.64 0 440.32 199.68 440.32 440.32 0 240.64-199.68 440.32-440.32 440.32z m0-389.12c25.6 0 51.2-20.48 51.2-51.2s-20.48-51.2-51.2-51.2c-25.6 0-51.2 20.48-51.2 51.2s25.6 51.2 51.2 51.2z m240.64-317.44h-10.24l-312.32 122.88c-25.6 10.24-46.08 30.72-51.2 51.2l-122.88 312.32c-5.12 15.36 5.12 35.84 20.48 35.84h10.24l312.32-122.88c25.6-10.24 46.08-30.72 51.2-51.2l122.88-312.32c10.24-20.48-5.12-35.84-20.48-35.84z m-148.48 332.8c-5.12 10.24-15.36 20.48-25.6 25.6l-261.12 102.4 102.4-261.12c5.12-10.24 15.36-20.48 25.6-25.6l261.12-102.4-102.4 261.12z" p-id="1189"></path></svg>