<?xml version="1.0" standalone="no"?><!DOCTYPE svg PUBLIC "-//W3C//DTD SVG 1.1//EN" "http://www.w3.org/Graphics/SVG/1.1/DTD/svg11.dtd"><svg t="1571468424882" class="icon" viewBox="0 0 1024 1024" version="1.1" xmlns="http://www.w3.org/2000/svg" p-id="7136" xmlns:xlink="http://www.w3.org/1999/xlink" width="200" height="200"><defs><style type="text/css"></style></defs><path d="M512 938.666667C276.352 938.666667 85.333333 747.648 85.333333 512S276.352 85.333333 512 85.333333s426.666667 191.018667 426.666667 426.666667-191.018667 426.666667-426.666667 426.666667z m0-85.205334c188.522667 0 341.333333-152.853333 341.333333-341.397333C853.333333 323.52 700.522667 170.666667 512 170.666667S170.666667 323.52 170.666667 512.064c0 188.544 152.810667 341.397333 341.333333 341.397333zM723.2 300.8l-120.682667 301.696L300.8 723.178667l120.661333-301.696L723.2 300.821333zM481.813333 542.165333a42.666667 42.666667 0 1 0 60.330667-60.330666 42.666667 42.666667 0 0 0-60.330667 60.330666z" fill="" p-id="7137"></path></svg>