<?xml version="1.0" standalone="no"?><!DOCTYPE svg PUBLIC "-//W3C//DTD SVG 1.1//EN" "http://www.w3.org/Graphics/SVG/1.1/DTD/svg11.dtd"><svg t="1565898595015" class="icon" viewBox="0 0 1024 1024" version="1.1" xmlns="http://www.w3.org/2000/svg" p-id="1315" xmlns:xlink="http://www.w3.org/1999/xlink" width="200" height="200"><defs><style type="text/css"></style></defs><path d="M924.2 337.9c-22.5-53.3-54.8-101.1-95.9-142.2-41.1-41.1-88.9-73.3-142.2-95.9C631 76.5 572.4 64.7 512 64.7S393 76.5 337.9 99.8c-53.3 22.5-101.1 54.8-142.2 95.9-41.1 41.1-73.3 88.9-95.9 142.2C76.5 393 64.7 451.6 64.7 512c0 60.4 11.8 119 35.2 174.1 22.5 53.3 54.8 101.1 95.9 142.2 41.1 41.1 88.9 73.3 142.2 95.9 55.2 23.3 113.7 35.2 174.1 35.2s119-11.8 174.1-35.2c53.3-22.5 101.1-54.8 142.2-95.9 41.1-41.1 73.3-88.9 95.9-142.2 23.3-55.2 35.2-113.7 35.2-174.1-0.2-60.4-12-119-35.3-174.1z m-156.3-49.4L604.6 594.8c-2.2 4.2-5.7 7.6-9.9 9.9L288.5 767.9c-3.5 1.8-7.3 2.8-11.3 2.8-6.4 0-12.5-2.5-16.9-7-7.5-7.5-9.2-18.8-4.2-28.2l163.3-306.3c2.2-4.2 5.7-7.6 9.9-9.9L735.6 256c3.5-1.8 7.3-2.8 11.3-2.8 6.4 0 12.4 2.5 16.9 7 7.4 7.6 9.1 18.9 4.1 28.3z" p-id="1316"></path><path d="M512 468.8c-11.4 0-22.5 4.6-30.5 12.7-8 8-12.6 19.2-12.6 30.5 0 11.4 4.6 22.5 12.6 30.5s19.2 12.6 30.5 12.6 22.5-4.6 30.5-12.6 12.6-19.2 12.6-30.5c0-11.4-4.6-22.5-12.6-30.5-8-8.1-19.1-12.7-30.5-12.7z" p-id="1317"></path></svg>