<?xml version="1.0" standalone="no"?><!DOCTYPE svg PUBLIC "-//W3C//DTD SVG 1.1//EN" "http://www.w3.org/Graphics/SVG/1.1/DTD/svg11.dtd"><svg t="1540931734862" class="icon" style="" viewBox="0 0 1024 1024" version="1.1" xmlns="http://www.w3.org/2000/svg" p-id="14668" xmlns:xlink="http://www.w3.org/1999/xlink" width="200" height="200"><defs><style type="text/css"></style></defs><path d="M122.548173 661.235268l329.223742 0c-34.191716-23.319113-63.951196-52.489898-88.452563-85.826547L122.548173 575.408721c-21.72088 0-39.303871 17.614615-39.303871 39.185889l0 7.272323C83.244302 643.586597 100.827293 661.235268 122.548173 661.235268L122.548173 661.235268zM675.753138 804.12261 503.456615 804.12261l0 0.060816-10.757054 0-93.269154 0L122.548173 804.183425c-21.72088 0-39.303871 17.492984-39.303871 39.187105l0 7.272323c0 21.690473 17.582991 39.334279 39.303871 39.334279l232.735013 0 147.908273 0 0 0.026759 172.536137 0c21.689256 0 39.303871-17.551367 39.303871-39.246704l0-7.386656C715.059442 821.704384 697.446044 804.12261 675.753138 804.12261L675.753138 804.12261zM301.82024 340.051342 125.385827 340.051342c-23.287489 0-42.112333 18.883227-42.112333 42.081925l0 7.923049c0 23.255865 18.855252 42.081925 42.112333 42.081925l181.930922 0c-4.229113-22.402015-6.67998-45.421915-6.67998-69.036591C300.636769 355.32699 301.31912 347.731129 301.82024 340.051342L301.82024 340.051342zM367.842813 575.408721 122.548173 575.408721c-21.72088 0-39.303871 17.4942-39.303871 39.185889l0 7.272323c0 21.695338 17.582991 39.339144 39.303871 39.339144l232.735013 0 96.699151 0C419.497105 637.322596 391.009887 608.418183 367.842813 575.408721L367.842813 575.408721zM413.853422 97.006877l-14.393823 0L122.548173 97.006877c-21.72088 0-39.303871 17.492984-39.303871 39.184673l0 7.301514c0 21.690473 17.582991 39.333063 39.303871 39.333063l225.107527 0C365.444248 150.996486 387.82072 122.156538 413.853422 97.006877L413.853422 97.006877zM413.853422 97.006877" p-id="14669"></path><path d="M940.494157 423.497569l0.261507-106.828588c0 0-70.497381-13.951086-71.668688-18.681319-1.318481-5.276357-2.74643-10.390944-4.287496-15.369305 8.236858-15.308489 47.946976-48.943135 47.946976-48.943135l-79.490784-105.928518c0 0-51.541175 42.441953-64.34528 48.52594-5.966005-2.296395-12.254333-4.390882-18.892958-6.301707-6.922025-1.723513-26.050947-69.652045-26.050947-69.652045l-107.018333-0.869662c0 0-11.576847 65.79269-28.912927 70.258984-5.767746 1.691888-11.576847 3.895844-17.377434 6.530373-12.833297-6.251838-64.329468-49.336004-64.329468-49.336004l-79.483486 107.616758c0 0 39.851211 40.172317 42.521013 53.611336-1.696754 4.229113-3.294986 8.545801-4.754559 12.936683-17.14147 5.976952-65.781743 15.604053-65.781743 15.604053l0.21772 106.826155c0 0 56.599812 11.788485 67.359299 21.267196 2.242877 6.14237 4.766722 12.147297 7.532614 18.014781-13.063179 16.321676-47.939679 43.553661-47.939679 43.553661l82.028008 106.801829c0 0 64.378121-41.680543 74.989217-44.073026 5.252031 2.307342 10.612313 4.426155 16.071116 6.316303 9.715892 3.382561 16.541829 65.562807 16.541829 65.562807l106.908865 0.239613c0 0 3.599064-61.016237 11.423592-63.452508 7.777092-2.408296 15.359574-5.270275 22.723121-8.522691 8.977591 3.512706 51.213988 45.62139 51.213988 45.62139l105.694986-107.643516c0 0-39.230892-27.087244-50.060925-41.690273 2.947121-6.068175 5.640034-12.282308 8.041031-18.659426C875.219615 437.105655 940.494157 423.497569 940.494157 423.497569L940.494157 423.497569 940.494157 423.497569zM668.528252 504.45644c-74.468636 0-134.880367-60.371592-134.880367-134.856041 0-74.49053 60.411731-134.864555 134.880367-134.864555 74.460122 0 134.874285 60.374025 134.874285 134.864555C803.402537 444.084847 742.988373 504.45644 668.528252 504.45644L668.528252 504.45644 668.528252 504.45644z" p-id="14670"></path></svg>