<?xml version="1.0" standalone="no"?><!DOCTYPE svg PUBLIC "-//W3C//DTD SVG 1.1//EN" "http://www.w3.org/Graphics/SVG/1.1/DTD/svg11.dtd"><svg t="1565644858738" class="icon" viewBox="0 0 1088 1024" version="1.1" xmlns="http://www.w3.org/2000/svg" p-id="1112" xmlns:xlink="http://www.w3.org/1999/xlink" width="212.5" height="200"><defs><style type="text/css"></style></defs><path d="M0 260.48v502.848h230.4L569.984 992V32L230.4 260.48H0z m518.08-91.328v685.696l-267.52-162.048H51.84V331.136h198.848l267.392-161.984z m291.52-45.696l-31.616 60.864a340.992 340.992 0 0 1 188.928 304.512 341.312 341.312 0 0 1-189.76 305.024l31.36 60.992c138.496-69.44 227.648-209.92 227.648-366.08 0-155.584-88.64-295.808-226.56-365.312z m71.168 365.568c0-100.224-70.272-189.568-176.512-228.48l-29.888 59.52c78.464 28.8 130.432 94.72 130.432 168.896 0 74.432-52.352 140.544-131.264 169.088l29.632 59.648c106.88-38.464 177.6-128 177.6-228.672z" p-id="1113"></path></svg>