<?xml version="1.0" standalone="no"?><!DOCTYPE svg PUBLIC "-//W3C//DTD SVG 1.1//EN" "http://www.w3.org/Graphics/SVG/1.1/DTD/svg11.dtd"><svg t="1540914468955" class="icon" style="" viewBox="0 0 1024 1024" version="1.1" xmlns="http://www.w3.org/2000/svg" p-id="6975" xmlns:xlink="http://www.w3.org/1999/xlink" width="200" height="200"><defs><style type="text/css"></style></defs><path d="M318.048885 532.590928v273.623737c0 18.439274 14.948461 33.387735 33.387735 33.387734h48.973543c18.439274 0 33.387735-14.948461 33.387735-33.387734V533.798724c0-9.815629-4.31912-19.133787-11.810379-25.478065l-24.799364-21.00204c-12.293254-10.410405-30.266681-10.560011-42.730219-0.353947l-24.174179 19.794244a33.387735 33.387735 0 0 0-12.234872 25.832012zM157.064053 839.602399h48.955299c18.439274 0 33.387735-14.948461 33.387734-33.387734V651.848997c0-28.18314-32.763767-43.687456-54.557626-25.817416L135.894162 666.173491a33.388951 33.388951 0 0 0-12.217843 25.817415v114.223759c0 18.44049 14.948461 33.387735 33.387734 33.387734z m549.765238-366.155806v332.768072c0 18.439274 14.948461 33.387735 33.387735 33.387734h48.989355c18.439274 0 33.387735-14.948461 33.387735-33.387734V431.511841c0-28.513977-33.436387-43.906392-55.098885-25.363731l-48.989355 41.934751a33.386518 33.386518 0 0 0-11.676585 25.363732zM512.457941 643.091558v163.124323c0 18.439274 14.948461 33.387735 33.387735 33.387735h48.954082c18.439274 0 33.387735-14.948461 33.387734-33.387735V599.663177c0-28.792512-34.005621-44.082757-55.544054-24.975729l-48.954082 43.427166a33.387735 33.387735 0 0 0-11.231415 24.976944z" p-id="6976"></path><path d="M866.933514 131.361579H760.281291c-29.92733 0-44.739565 36.339721-23.33979 57.261486l9.487225 9.274371c14.0192 13.706608 13.26752 36.485679-1.626208 49.236266L558.843174 406.33907c-12.447726 10.6561-30.788478 10.704752-43.292154 0.114334l-116.775579-98.910404c-12.300552-10.417703-30.287358-10.561228-42.750896-0.339351L136.81126 486.981701a33.390167 33.390167 0 0 0-12.21541 25.816199v3.24755c0 28.184357 32.7662 43.688672 54.558842 25.816199l176.871069-145.053591c12.463538-10.220661 30.449128-10.078352 42.74968 0.338134l116.779228 98.899458c12.50246 10.587987 30.839563 10.54055 43.287289-0.113117l239.390666-204.890007c13.138591-11.244794 32.688356-10.596501 45.052157 1.49363l0.307726 0.300428c21.138267 20.669988 56.729958 5.693551 56.729958-23.871318V164.749314c-0.001216-18.439274-14.949678-33.387735-33.388951-33.387735z" p-id="6977"></path></svg>