<svg xmlns="http://www.w3.org/2000/svg" viewBox="0 0 1609 1024" version="1.1"><path d="M1170.285714 292.571429c14.628571 43.885714 29.257143 80.457143 58.514286 109.714285 29.257143 29.257143 58.514286 43.885714 102.4 51.2l21.942857 7.314286c21.942857-14.628571 43.885714-21.942857 73.142857-21.942857 80.457143 0 146.285714 65.828571 146.285715 146.285714s-65.828571 146.285714-146.285715 146.285714-146.285714-65.828571-146.285714-146.285714c0-21.942857 7.314286-43.885714 14.628571-65.828571-43.885714-14.628571-87.771429-36.571429-117.028571-65.828572-29.257143-29.257143-51.2-65.828571-65.828571-109.714285-29.257143 14.628571-58.514286 21.942857-87.771429 21.942857h-14.628571c-7.314286 73.142857-29.257143 146.285714-65.828572 204.8-36.571429 65.828571-87.771429 109.714286-138.971428 146.285714 29.257143 29.257143 43.885714 73.142857 43.885714 124.342857 0 102.4-80.457143 182.857143-182.857143 182.857143s-182.857143-80.457143-182.857143-182.857143c-7.314286-36.571429 7.314286-80.457143 29.257143-109.714286-21.942857-43.885714-43.885714-80.457143-73.142857-109.714285-29.257143-29.257143-65.828571-51.2-109.714286-73.142857-29.257143 21.942857-73.142857 36.571429-109.714286 36.571428C117.028571 585.142857 36.571429 504.685714 36.571429 402.285714S117.028571 219.428571 219.428571 219.428571s182.857143 80.457143 182.857143 182.857143c0 36.571429-7.314286 65.828571-21.942857 87.771429 43.885714 21.942857 80.457143 51.2 109.714286 80.457143 29.257143 29.257143 58.514286 65.828571 80.457143 109.714285 21.942857-14.628571 51.2-21.942857 87.771428-21.942857 21.942857 0 51.2 7.314286 73.142857 14.628572 58.514286-29.257143 109.714286-73.142857 146.285715-138.971429 36.571429-58.514286 58.514286-124.342857 58.514285-190.171428-58.514286-29.257143-95.085714-87.771429-95.085714-160.914286C841.142857 80.457143 921.6 0 1024 0s182.857143 80.457143 182.857143 182.857143c0 43.885714-14.628571 80.457143-36.571429 109.714286zM219.428571 512c58.514286 0 109.714286-51.2 109.714286-109.714286S277.942857 292.571429 219.428571 292.571429s-109.714286 51.2-109.714285 109.714285S160.914286 512 219.428571 512z m438.857143 438.857143c58.514286 0 109.714286-51.2 109.714286-109.714286S716.8 731.428571 658.285714 731.428571s-109.714286 51.2-109.714285 109.714286S599.771429 950.857143 658.285714 950.857143z m365.714286-658.285714c58.514286 0 109.714286-51.2 109.714286-109.714286S1082.514286 73.142857 1024 73.142857s-109.714286 51.2-109.714286 109.714286S965.485714 292.571429 1024 292.571429z m402.285714 365.714285c43.885714 0 73.142857-29.257143 73.142857-73.142857s-29.257143-73.142857-73.142857-73.142857-73.142857 29.257143-73.142857 73.142857 29.257143 73.142857 73.142857 73.142857z" fill="#435269" p-id="262"></path></svg>