<svg xmlns="http://www.w3.org/2000/svg" viewBox="0 0 1024 1024" version="1.1"><path d="M891.838413 696.174182C872.211492 676.304276 847.695493 663.184374 821.039857 657.949409L821.039857 552.541873C821.039857 503.639247 781.738947 463.856115 733.429079 463.856115L524.148727 463.856115 524.148727 332.202278C548.842316 326.216832 571.501107 313.453222 589.909499 294.817874 616.20354 268.202293 630.683556 232.815924 630.683556 195.175945 630.683556 157.537048 616.20354 122.15068 589.909499 95.537264 563.617602 68.921682 528.660159 54.26508 491.475352 54.26508 454.294823 54.26508 419.337381 68.921681 393.045482 95.537264 366.751443 122.152846 352.273567 157.539214 352.273567 195.175945 352.273567 232.815925 366.751443 268.202293 393.043342 294.816792 411.451737 313.454305 434.112667 326.217916 458.806254 332.201196L458.806254 463.855032 262.115546 463.855032C213.808889 463.855032 174.506907 503.638164 174.506907 552.54079L174.506907 656.516675C144.451381 660.39362 116.663873 674.131886 94.888754 696.173102 68.901754 722.476795 54.59077 757.450557 54.59077 794.649779 54.59077 831.853332 68.901754 866.826015 94.886614 893.128622 120.871475 919.436652 155.423456 933.923226 192.171776 933.923226 228.922237 933.923226 263.473147 919.436652 289.459078 893.128622 315.446078 866.824929 329.757062 831.851167 329.757062 794.649779 329.757062 757.450557 315.443938 722.476795 289.459078 696.173102 274.987621 681.524081 257.857661 670.544082 239.173252 663.686866L239.173255 552.541873C239.173255 539.734945 249.465994 529.316997 262.115546 529.316997L458.806254 529.316997 458.806254 659.795835C435.283049 665.929646 413.709058 678.328305 396.079492 696.174182 370.092491 722.480041 355.781508 757.451643 355.781508 794.65086 355.781508 831.854413 370.092491 866.827095 396.077352 893.129708 422.062212 919.437732 456.614193 933.924311 493.362513 933.924311 530.112974 933.924311 564.663885 919.437732 590.649815 893.129708 616.636815 866.82818 630.947799 831.854413 630.947799 794.65086 630.947799 757.449472 616.634675 722.477875 590.649815 696.174182 572.083087 677.377475 549.141864 664.620365 524.149797 658.867748L524.149797 529.316997 733.431219 529.316997C746.082908 529.316997 756.373509 539.734945 756.373509 552.541873L756.373509 660.796477C734.258186 667.224852 713.990446 679.248809 697.270226 696.174182 671.283226 722.477875 656.972242 757.451643 656.972242 794.650865 656.972242 831.854413 671.283226 866.827095 697.268086 893.129708 723.252946 919.437732 757.802788 933.924311 794.553247 933.924311 831.303711 933.924311 865.854623 919.437732 891.840548 893.129708 917.827553 866.826015 932.138537 831.852247 932.138537 794.650865 932.136397 757.451643 917.825413 722.477875 891.838413 696.174182L891.838413 696.174182ZM265.743307 794.649779C265.743307 835.715118 232.739357 869.124024 192.171778 869.124024 151.606339 869.124024 118.602388 835.715118 118.602388 794.649779 118.602388 753.586601 151.606338 720.17986 192.171778 720.17986 232.739356 720.17986 265.743307 753.586601 265.743307 794.649779L265.743307 794.649779ZM416.938844 195.175945C416.938844 153.57238 450.377142 119.724879 491.475351 119.724879 532.57784 119.724879 566.016138 153.57238 566.016138 195.175945 566.016138 236.782758 532.57784 270.631342 491.475351 270.631342 450.377141 270.631342 416.938844 236.782758 416.938844 195.175945L416.938844 195.175945ZM566.932972 794.649779C566.932972 835.715118 533.929022 869.124024 493.361444 869.124024 452.798144 869.124024 419.794194 835.715118 419.794194 794.649779 419.794194 753.586601 452.798144 720.17986 493.361444 720.17986 533.929022 720.17986 566.932972 753.586601 566.932972 794.649779L566.932972 794.649779ZM794.551112 869.124024C753.987809 869.124024 720.983859 835.715118 720.983859 794.649779 720.983859 753.586606 753.987809 720.17986 794.551112 720.17986 835.118689 720.17986 868.122639 753.586606 868.122639 794.649779 868.122639 835.715118 835.118689 869.124024 794.551112 869.124024L794.551112 869.124024Z" p-id="253"></path></svg>